<?xml version="1.0" encoding="utf-8"?>
<!-- Generator: Adobe Illustrator 23.0.1, SVG Export Plug-In . SVG Version: 6.00 Build 0)  -->
<svg version="1.1"
	 id="svg96802" xmlns:cc="http://creativecommons.org/ns#" xmlns:dc="http://purl.org/dc/elements/1.1/" xmlns:rdf="http://www.w3.org/1999/02/22-rdf-syntax-ns#" xmlns:svg="http://www.w3.org/2000/svg"
	 xmlns="http://www.w3.org/2000/svg" xmlns:xlink="http://www.w3.org/1999/xlink" x="0px" y="0px" viewBox="0 0 348.6 243.5"
	 style="enable-background:new 0 0 348.6 243.5;" xml:space="preserve">
<style type="text/css">
	.st0{display:none;fill:#161619;}
	.st1{fill:#A6B2BB;}
	.st2{fill:#D9BC78;}
	.st3{opacity:0.64;fill:url(#SVGID_1_);enable-background:new    ;}
	.st4{opacity:0.64;fill:url(#SVGID_2_);enable-background:new    ;}
	.st5{opacity:0.64;fill:url(#SVGID_3_);enable-background:new    ;}
	.st6{opacity:0.64;fill:url(#SVGID_4_);enable-background:new    ;}
	.st7{opacity:0.64;fill:url(#SVGID_5_);enable-background:new    ;}
	.st8{opacity:0.64;fill:url(#SVGID_6_);enable-background:new    ;}
	.st9{opacity:0.64;fill:url(#SVGID_7_);enable-background:new    ;}
	.st10{opacity:0.64;fill:url(#SVGID_8_);enable-background:new    ;}
	.st11{opacity:0.64;fill:url(#SVGID_9_);enable-background:new    ;}
	.st12{opacity:0.64;fill:url(#SVGID_10_);enable-background:new    ;}
	.st13{opacity:0.64;fill:url(#SVGID_11_);enable-background:new    ;}
	.st14{opacity:0.64;fill:url(#SVGID_12_);enable-background:new    ;}
	.st15{opacity:0.64;fill:url(#SVGID_13_);enable-background:new    ;}
	.st16{opacity:0.64;fill:url(#SVGID_14_);enable-background:new    ;}
	.st17{opacity:0.64;fill:url(#SVGID_15_);enable-background:new    ;}
	.st18{opacity:0.64;fill:url(#SVGID_16_);enable-background:new    ;}
	.st19{opacity:0.64;fill:url(#SVGID_17_);enable-background:new    ;}
	.st20{opacity:0.64;fill:url(#SVGID_18_);enable-background:new    ;}
	.st21{opacity:0.64;fill:url(#SVGID_19_);enable-background:new    ;}
	.st22{opacity:0.64;fill:url(#SVGID_20_);enable-background:new    ;}
	.st23{opacity:0.64;fill:url(#SVGID_21_);enable-background:new    ;}
	.st24{fill:none;stroke:#AFAFAF;stroke-width:2;stroke-linecap:round;stroke-linejoin:round;stroke-miterlimit:10;}
</style>
<g id="logo-group">
	<g id="logo-center" transform="translate(0 0)">
		<rect x="-337.5" y="-298.9" class="st0" width="1024" height="768"/>
		<g id="slogan" transform="translate(0 0)">
			<path id="path96810" class="st1" d="M58.5,211.1v-21c1.6-0.2,3.9-0.2,6.8-0.2c2.3,0,4,0.4,4.9,1.3c0.9,0.9,1.4,2.5,1.4,4.9
				c0,2.4-0.5,4.1-1.4,5c-0.9,0.9-2.5,1.3-4.8,1.3c-2.2,0-4.1-0.1-5.7-0.2v8.9H58.5z M59.7,201.3h5.6c1.9,0,3.2-0.4,3.9-1.1
				c0.7-0.7,1.1-2.1,1.1-4.1c0-2-0.4-3.4-1.1-4.1c-0.7-0.7-2-1.1-3.9-1.1c-2.1,0-4,0-5.6,0.1V201.3z"/>
			<path id="path96812" class="st1" d="M79.3,190.3h0.5c0.3,0,0.5,0.2,0.5,0.5v1.8c0,0.3-0.2,0.5-0.5,0.5h-0.5
				c-0.3,0-0.5-0.2-0.5-0.5v-1.8C78.8,190.5,78.9,190.3,79.3,190.3z M80.1,211.1h-1.2v-14.7h1.2V211.1z"/>
			<path id="path96814" class="st1" d="M94.5,210.2l0.1,0.9c-0.4,0.2-1.2,0.2-2.1,0.2c-1,0-1.8-0.3-2.4-0.9
				c-0.6-0.6-0.9-1.4-0.9-2.4v-7.8l-2.6,1.1v-0.9l2.6-1.1v-9.6h1.2v9.1l3.5-1.6v0.9l-3.5,1.5v8.1c0,1.5,0.8,2.3,2.3,2.3H94.5z"/>
			<path id="path96816" class="st1" d="M109.1,204.3h-7.8c0.1,2.2,0.5,3.8,1.4,4.7c0.9,0.9,2.2,1.3,4.1,1.3c1.7,0,3.4-0.1,5-0.4
				l0.2,0.9c-1.2,0.4-3,0.6-5.3,0.6c-2.4,0-4.1-0.6-5.1-1.8c-1-1.2-1.6-3.2-1.6-6c0-2.8,0.5-4.8,1.5-5.9c1-1.2,2.6-1.7,5-1.7
				c3.9,0,5.8,1.4,5.9,4.3c0,1.3-0.2,2.3-0.7,3C111.1,204,110.3,204.3,109.1,204.3z M101.3,203.3h7.6c1.5,0,2.2-1,2.2-2.9
				c0-1.1-0.4-2-1.2-2.5c-0.7-0.5-1.9-0.8-3.4-0.8c-1.9,0-3.2,0.5-4,1.4C101.7,199.4,101.3,201,101.3,203.3L101.3,203.3z"/>
			<path id="path96818" class="st1" d="M128.6,190.2l-5,4.1l-0.5-0.6l4.7-4.4L128.6,190.2z M126.7,204.5l-4.8-0.7
				c-1.1-0.2-1.9-0.5-2.4-1.1c-0.5-0.6-0.8-1.5-0.8-2.7c0-1.7,0.4-2.8,1.2-3.3c0.8-0.5,2.2-0.7,4.3-0.7c2.2,0,4.1,0.2,5.8,0.4
				l-0.1,0.9c-2.3-0.1-4.2-0.2-5.6-0.2c-1.7,0-2.9,0.1-3.5,0.4c-0.6,0.3-0.9,1.1-0.9,2.4c0,1,0.2,1.6,0.6,2c0.4,0.4,1,0.7,1.8,0.8
				l4.8,0.7c1.1,0.2,1.9,0.6,2.5,1.2c0.6,0.6,0.9,1.5,0.9,2.6c0,1.7-0.4,2.8-1.3,3.3c-0.9,0.5-2.4,0.8-4.6,0.8
				c-1.9,0-3.8-0.1-5.4-0.4l0.1-0.9c1.7,0.1,3.5,0.2,5.2,0.2c1.9,0,3.2-0.2,3.8-0.6c0.7-0.4,1-1.2,1-2.5c0-0.9-0.2-1.5-0.7-1.9
				C128.2,204.9,127.6,204.7,126.7,204.5L126.7,204.5z"/>
			<path id="path96820" class="st1" d="M136,190.9l-0.2-0.9c0.1,0,0.4-0.1,0.9-0.2c0.5-0.1,0.8-0.1,0.9-0.2c0.1,0,0.4-0.1,0.8-0.1
				c0.4-0.1,0.7-0.1,1-0.1c0.3,0,0.7,0,1.2-0.1s1,0,1.6,0c4,0,6,1.6,6,4.7c0,0.9-0.2,1.6-0.6,2.4c-0.4,0.7-0.9,1.3-1.4,1.9
				c-0.5,0.5-1.1,1.1-1.7,1.7c-0.5,0.6-1,1.3-1.4,2.1c-0.4,0.8-0.6,1.7-0.6,2.7h-1.1c0-1.1,0.2-2,0.5-2.9c0.4-0.9,0.9-1.6,1.4-2.2
				c0.5-0.6,1.1-1.1,1.6-1.7c0.5-0.5,1-1.1,1.4-1.7c0.4-0.6,0.6-1.3,0.6-2.1c0-1.3-0.4-2.2-1.2-2.9s-2-0.9-3.7-0.9
				C140.2,190.5,138.2,190.6,136,190.9L136,190.9z M141.6,208.2h0.4c0.3,0,0.5,0.2,0.5,0.5v1.8c0,0.3-0.2,0.5-0.5,0.5h-0.4
				c-0.3,0-0.5-0.2-0.5-0.5v-1.8C141.1,208.4,141.3,208.2,141.6,208.2z"/>
			<path id="path96822" class="st1" d="M177.6,190.1v20.4c0,0.4-0.2,0.6-0.6,0.6h-1.6c-0.3,0-0.6-0.2-0.7-0.5l-9.1-17.1
				c-0.6-1.1-0.9-1.8-1.1-2.2h-0.7c0,0.5,0,1.3,0,2.3v17.6h-1.2v-20.4c0-0.4,0.2-0.6,0.6-0.6h1.5c0.3,0,0.6,0.2,0.7,0.5l8.8,16.8
				c0.2,0.3,0.6,1.1,1.4,2.6h0.8c0-0.3,0-0.8,0-1.4c0-0.6,0-1.1,0-1.4v-17H177.6z"/>
			<path id="path96824" class="st1" d="M186.6,190.3h0.5c0.3,0,0.5,0.2,0.5,0.5v1.8c0,0.3-0.2,0.5-0.5,0.5h-0.5
				c-0.3,0-0.5-0.2-0.5-0.5v-1.8C186.1,190.5,186.3,190.3,186.6,190.3z M187.5,211.1h-1.2v-14.7h1.2V211.1z"/>
			<path id="path96826" class="st1" d="M204.2,204.3h-7.8c0.1,2.2,0.5,3.8,1.4,4.7c0.9,0.9,2.2,1.3,4.1,1.3c1.7,0,3.4-0.1,5-0.4
				l0.2,0.9c-1.2,0.4-3,0.6-5.3,0.6c-2.4,0-4.1-0.6-5.1-1.8c-1-1.2-1.6-3.2-1.6-6c0-2.8,0.5-4.8,1.5-5.9c1-1.2,2.6-1.7,5-1.7
				c3.9,0,5.8,1.4,5.9,4.3c0,1.3-0.2,2.3-0.7,3C206.2,204,205.4,204.3,204.2,204.3z M196.4,203.3h7.6c1.5,0,2.2-1,2.2-2.9
				c0-1.1-0.4-2-1.2-2.5c-0.7-0.5-1.9-0.8-3.4-0.8c-1.9,0-3.2,0.5-4,1.4C196.8,199.4,196.4,201,196.4,203.3L196.4,203.3z"/>
			<path id="path96828" class="st1" d="M222.2,190.3h0.5c0.3,0,0.5,0.2,0.5,0.5v1.8c0,0.3-0.2,0.5-0.5,0.5h-0.5
				c-0.3,0-0.5-0.2-0.5-0.5v-1.8C221.8,190.5,221.9,190.3,222.2,190.3z M223.1,196.4v15.8c0,2-0.7,3.7-2.2,5.2l-0.7-0.5
				c1.1-1.4,1.7-3,1.7-4.7v-15.8H223.1z"/>
			<path id="path96830" class="st1" d="M239.9,204.3h-7.8c0.1,2.2,0.5,3.8,1.4,4.7c0.9,0.9,2.2,1.3,4.1,1.3c1.7,0,3.4-0.1,5-0.4
				l0.2,0.9c-1.2,0.4-3,0.6-5.3,0.6c-2.4,0-4.1-0.6-5.1-1.8c-1-1.2-1.6-3.2-1.6-6c0-2.8,0.5-4.8,1.5-5.9c1-1.2,2.6-1.7,5-1.7
				c3.9,0,5.8,1.4,5.9,4.3c0,1.3-0.2,2.3-0.7,3C241.9,204,241.1,204.3,239.9,204.3z M232.1,203.3h7.6c1.5,0,2.2-1,2.2-2.9
				c0-1.1-0.4-2-1.2-2.5c-0.7-0.5-1.9-0.8-3.4-0.8c-1.9,0-3.2,0.5-4,1.4C232.5,199.4,232.1,201,232.1,203.3L232.1,203.3z"/>
			<path id="path96832" class="st1" d="M262.2,189.8v21.3h-0.9l-0.2-2.4c-2.1,1.9-4.1,2.8-6,2.8c-1.9,0-3.2-0.6-4-1.8
				c-0.8-1.2-1.2-3.2-1.2-5.9c0-2.8,0.4-4.8,1.2-5.9c0.8-1.2,2.2-1.8,4.1-1.8c1.8,0,3.8,0.5,5.9,1.5c-0.1-0.5-0.1-1.5-0.1-2.9v-4.9
				H262.2z M261,207.7v-9.2c-2.3-0.9-4.2-1.3-5.6-1.3c-1.6,0-2.7,0.5-3.3,1.5c-0.6,1-1,2.7-1,5.1c0,2.4,0.3,4.1,1,5.1
				c0.6,1,1.7,1.5,3.3,1.5c0.9,0,1.7-0.2,2.6-0.6C258.7,209.3,259.8,208.6,261,207.7z"/>
			<path id="path96834" class="st1" d="M274.3,194.3l-0.5-0.6l4.7-4.4l0.8,0.9L274.3,194.3z M281.5,210v1h-12.1v-1l10.5-12.6h-10.5
				v-1.1h11.9v1.1L270.8,210H281.5z"/>
			<path id="path96836" class="st1" d="M290.4,200l-0.1,4.8h-1l-0.1-4.8v-10.1h1.2V200z M289.6,208.2h0.4c0.3,0,0.5,0.2,0.5,0.5v1.8
				c0,0.3-0.2,0.5-0.5,0.5h-0.4c-0.3,0-0.5-0.2-0.5-0.5v-1.8C289.1,208.4,289.3,208.2,289.6,208.2z"/>
			<path id="path96838" class="st1" d="M114.4,239.8v1.1h-14v-1.1l12.4-18.8h-12.3v-1.1h13.7v1.1l-12.4,18.8L114.4,239.8z"/>
			<path id="path96840" class="st1" d="M121.4,227.4l-0.1-0.9c3.1-0.4,5.4-0.6,7-0.6c2.9,0,4.3,1.4,4.3,4.3v10.8h-0.9l-0.2-2.7
				c-0.7,0.7-1.8,1.4-3,2c-1.3,0.6-2.5,0.9-3.8,0.9c-1.3,0-2.2-0.3-2.9-1c-0.7-0.7-1-1.6-1-2.8v-1.8c0-1.1,0.3-2,0.9-2.6
				c0.6-0.6,1.6-0.9,2.7-0.9h7.1v-1.9c0-1-0.2-1.8-0.7-2.3c-0.5-0.5-1.3-0.8-2.5-0.8C126.4,226.9,124.1,227.1,121.4,227.4
				L121.4,227.4z M121.9,235.5v1.6c0,1.8,1,2.7,2.9,2.8c1,0,2.1-0.2,3.4-0.8c1.3-0.5,2.3-1.2,3.2-2v-4.2l-6.9,0.1
				C122.8,233,121.9,233.9,121.9,235.5L121.9,235.5z"/>
			<path id="path96842" class="st1" d="M152.5,219.6v21.3h-0.9l-0.2-2.4c-2.1,1.9-4.1,2.8-6,2.8s-3.2-0.6-4-1.8
				c-0.8-1.2-1.2-3.2-1.2-5.9c0-2.8,0.4-4.8,1.2-5.9c0.8-1.2,2.2-1.8,4.1-1.8c1.8,0,3.8,0.5,5.9,1.5c-0.1-0.5-0.1-1.5-0.1-2.9v-4.9
				H152.5z M151.3,237.5v-9.2c-2.3-0.9-4.2-1.3-5.6-1.3c-1.6,0-2.7,0.5-3.3,1.5c-0.6,1-1,2.7-1,5.1c0,2.4,0.3,4.1,1,5.1
				c0.6,1,1.7,1.5,3.3,1.5c0.9,0,1.7-0.2,2.6-0.6C149,239.1,150.1,238.4,151.3,237.5z"/>
			<path id="path96844" class="st1" d="M171.8,239.8v1h-12.1v-1l10.5-12.6h-10.5v-1.1h11.9v1.1l-10.6,12.6H171.8z"/>
			<path id="path96846" class="st1" d="M200,226.2l-4.9,14.3c-0.1,0.3-0.3,0.4-0.5,0.4h-1.2c-0.3,0-0.5-0.1-0.6-0.4l-3.4-11.1
				c-0.3-1-0.5-1.7-0.6-2.2h-0.3l-0.7,2.2l-3.4,11.1c-0.1,0.3-0.3,0.4-0.6,0.4h-1.2c-0.3,0-0.4-0.1-0.5-0.4l-4.9-14.3h1.3l3.9,11.7
				c0.1,0.3,0.2,0.6,0.4,1.2c0.2,0.5,0.3,0.8,0.3,0.9h0.4l0.6-2.1l3.5-11.2c0.1-0.3,0.2-0.4,0.5-0.4h1.1c0.3,0,0.5,0.1,0.5,0.4
				l3.5,11.2l0.6,2.1h0.4c0.1-0.2,0.2-0.6,0.3-1c0.1-0.5,0.3-0.8,0.3-1l3.9-11.7H200z"/>
			<path id="path96848" class="st1" d="M207.2,227.6c1-1.2,2.7-1.7,5.1-1.7s4.1,0.6,5,1.7c1,1.2,1.5,3.1,1.5,6s-0.5,4.8-1.5,6
				c-1,1.2-2.7,1.7-5.1,1.7c-2.4,0-4.1-0.6-5.1-1.7c-1-1.2-1.5-3.1-1.5-6S206.2,228.7,207.2,227.6z M216.4,228.4
				c-0.8-1-2.1-1.4-4.1-1.4s-3.3,0.5-4.1,1.4c-0.8,1-1.2,2.7-1.2,5.2s0.4,4.2,1.2,5.2c0.8,1,2.1,1.4,4.1,1.4s3.3-0.5,4.1-1.4
				c0.8-1,1.2-2.7,1.2-5.2S217.2,229.3,216.4,228.4z"/>
			<path id="path96850" class="st1" d="M231.6,224.1l-0.5-0.6l4.7-4.4l0.8,0.9L231.6,224.1z M227.4,226.2l0.1,2.6
				c2.5-2,4.9-2.9,7-2.9c2.6,0,4,1.3,4,4v11h-1.2v-10.8c0-1.1-0.2-1.9-0.7-2.4c-0.5-0.5-1.2-0.8-2.3-0.8c-1,0-2,0.2-2.9,0.7
				c-1,0.4-2.2,1.1-3.6,2.1v11.1h-1.2v-14.7H227.4z"/>
			<path id="path96852" class="st1" d="M248.5,229.8l-0.1,4.8h-1l-0.1-4.8v-10.1h1.2V229.8z M247.7,238h0.4c0.3,0,0.5,0.2,0.5,0.5
				v1.8c0,0.3-0.2,0.5-0.5,0.5h-0.4c-0.3,0-0.5-0.2-0.5-0.5v-1.8C247.2,238.2,247.3,238,247.7,238L247.7,238z"/>
		</g>
		<g id="title" transform="translate(0 0)">
			
				<g id="path96855" transform="translate(0 366.45848) translate(341.2585512499999 44.376799999999996) scale(1.11) translate(-387.82194 51.12)">
				<path class="st2" d="M96.1-276.3H84.7c0-0.1-0.1-0.1-0.1-0.2c-0.5-1.4-0.8-2.8-0.8-4.4v-27.3c0-1.6,0.3-3.1,0.9-4.6h11.4
					c-2.1,0-3.9,1.7-3.9,3.9v28.7c0,1.7,1.1,3.2,2.7,3.7C95.3-276.4,95.7-276.3,96.1-276.3z"/>
				
					<linearGradient id="SVGID_1_" gradientUnits="userSpaceOnUse" x1="-126.1964" y1="-87.8113" x2="-113.933" y2="-87.8113" gradientTransform="matrix(1.11 0 0 -1.11 223.9204 -391.9746)">
					<stop  offset="0" style="stop-color:#000000;stop-opacity:0.4"/>
					<stop  offset="1" style="stop-color:#000000;stop-opacity:0.4"/>
				</linearGradient>
				<path class="st3" d="M96.1-276.3H84.7c0-0.1-0.1-0.1-0.1-0.2c-0.5-1.4-0.8-2.8-0.8-4.4v-27.3c0-1.6,0.3-3.1,0.9-4.6h11.4
					c-2.1,0-3.9,1.7-3.9,3.9v28.7c0,1.7,1.1,3.2,2.7,3.7C95.3-276.4,95.7-276.3,96.1-276.3z"/>
				
					<linearGradient id="SVGID_2_" gradientUnits="userSpaceOnUse" x1="-113.008" y1="-72.226" x2="-115.5823" y2="-77.309" gradientTransform="matrix(1.11 0 0 -1.11 223.9204 -391.9746)">
					<stop  offset="0" style="stop-color:#000000;stop-opacity:0.8"/>
					<stop  offset="0.5047" style="stop-color:#000000;stop-opacity:0.6059"/>
					<stop  offset="1" style="stop-color:#000000;stop-opacity:0"/>
				</linearGradient>
				<path class="st4" d="M83.8-308.2v27.3c0,1.5,0.3,3,0.8,4.4h10.3c-1.6-0.5-2.7-2-2.7-3.7v-28.7c0-2.1,1.7-3.9,3.9-3.9H84.7
					C84.1-311.3,83.8-309.8,83.8-308.2z"/>
				<path class="st2" d="M100-304.9v-4c0-2.1-1.7-3.9-3.9-3.9H84.7c1.8-4.5,6.2-7.7,11.4-7.7c6.8,0,12.3,5.5,12.3,12.3v3.3H100
					L100-304.9z M100-286v5.8c0,2.1-1.7,3.9-3.9,3.9H84.7c1.8,4.5,6.2,7.7,11.4,7.7c6.8,0,12.3-5.5,12.3-12.3v-5.1
					C108.4-286,100-286,100-286z"/>
			</g>
			
				<g id="path96857" transform="translate(0 366.45848) translate(379.57658374999994 45.175999999999995) scale(1.11) translate(-414.34269 50.4)">
				<path class="st2" d="M112.1-277h8.4l-1.8,7.7h-8.4L112.1-277z M113.8-284.7h8.4l8-35h-8.4L113.8-284.7z"/>
				
					<linearGradient id="SVGID_3_" gradientUnits="userSpaceOnUse" x1="-137.3163" y1="-87.8113" x2="-117.4145" y2="-87.8113" gradientTransform="matrix(1.11 0 0 -1.11 262.7256 -391.9554)">
					<stop  offset="0" style="stop-color:#000000;stop-opacity:0.4"/>
					<stop  offset="1" style="stop-color:#000000;stop-opacity:0.4"/>
				</linearGradient>
				<path class="st5" d="M112.1-277h8.4l-1.8,7.7h-8.4L112.1-277z M113.8-284.7h8.4l8-35h-8.4L113.8-284.7z"/>
				
					<linearGradient id="SVGID_4_" gradientUnits="userSpaceOnUse" x1="-130.3129" y1="-101.628" x2="-132.2663" y2="-106.0097" gradientTransform="matrix(1.11 0 0 -1.11 262.7256 -391.9554)">
					<stop  offset="0" style="stop-color:#000000;stop-opacity:0.8"/>
					<stop  offset="0.4862" style="stop-color:#000000;stop-opacity:0.6059"/>
					<stop  offset="1" style="stop-color:#000000;stop-opacity:0"/>
				</linearGradient>
				<polygon class="st6" points="110.3,-269.3 118.7,-269.3 120.5,-277 112.1,-277 				"/>
				
					<linearGradient id="SVGID_5_" gradientUnits="userSpaceOnUse" x1="-120.2708" y1="-79.4078" x2="-124.7336" y2="-80.4097" gradientTransform="matrix(1.11 0 0 -1.11 262.7256 -391.9554)">
					<stop  offset="0" style="stop-color:#000000;stop-opacity:0.8"/>
					<stop  offset="0.4862" style="stop-color:#000000;stop-opacity:0.6059"/>
					<stop  offset="1" style="stop-color:#000000;stop-opacity:0"/>
				</linearGradient>
				<polygon class="st7" points="121.8,-319.7 130.2,-319.7 122.2,-284.7 113.8,-284.7 				"/>
				<path class="st2" d="M133.3-269.3l-1.8-7.7h-11.1h-8.4l1.8-7.7h8.4h7.6l-8-35h8.4l11.5,50.5
					C141.7-269.3,133.3-269.3,133.3-269.3z"/>
			</g>
			
				<g id="path96859" transform="translate(0 366.45848) translate(427.16657945 45.175999999999995) scale(1.11) translate(-449.21656 50.4)">
				<path class="st2" d="M145.2-319.7h8.4v50.5h-8.4V-319.7z"/>
				
					<linearGradient id="SVGID_6_" gradientUnits="userSpaceOnUse" x1="-142.2229" y1="-87.8113" x2="-133.8137" y2="-87.8113" gradientTransform="matrix(1.11 0 0 -1.11 303.0458 -391.9554)">
					<stop  offset="0" style="stop-color:#000000;stop-opacity:0.4"/>
					<stop  offset="1" style="stop-color:#000000;stop-opacity:0.4"/>
				</linearGradient>
				<path class="st8" d="M145.2-319.7h8.4v50.5h-8.4V-319.7z"/>
				
					<linearGradient id="SVGID_7_" gradientUnits="userSpaceOnUse" x1="-134.7686" y1="-70.568" x2="-137.0973" y2="-75.3675" gradientTransform="matrix(1.11 0 0 -1.11 303.0458 -391.9554)">
					<stop  offset="0" style="stop-color:#000000;stop-opacity:0.8"/>
					<stop  offset="0.4862" style="stop-color:#000000;stop-opacity:0.6059"/>
					<stop  offset="1" style="stop-color:#000000;stop-opacity:0"/>
				</linearGradient>
				<rect x="145.2" y="-312" class="st9" width="8.4" height="13.5"/>
				
					<linearGradient id="SVGID_8_" gradientUnits="userSpaceOnUse" x1="-134.7686" y1="-93.0983" x2="-137.0973" y2="-97.8978" gradientTransform="matrix(1.11 0 0 -1.11 303.0458 -391.9554)">
					<stop  offset="0" style="stop-color:#000000;stop-opacity:0.8"/>
					<stop  offset="0.4862" style="stop-color:#000000;stop-opacity:0.6059"/>
					<stop  offset="1" style="stop-color:#000000;stop-opacity:0"/>
				</linearGradient>
				<rect x="145.2" y="-287" class="st10" width="8.4" height="13.5"/>
				<path class="st2" d="M164.2-289l5.5,19.8h-8.4l-4.9-17.7h-11.2v-7.7h12.3c2.1,0,3.9-1.7,3.9-3.9v-9.6c0-2.1-1.7-3.9-3.9-3.9
					h-12.3v-7.7h12.3c6.8,0,12.3,5.5,12.3,12.3v8.2C169.7-295,167.5-291.2,164.2-289z"/>
			</g>
			
				<g id="path96861" transform="translate(0 366.45848) translate(488.33799124999996 45.175999999999995) scale(1.11) translate(-496.32594 50.4)">
				<path class="st2" d="M192.3-319.7h8.4v50.5h-8.4V-319.7z"/>
				
					<linearGradient id="SVGID_9_" gradientUnits="userSpaceOnUse" x1="-150.2228" y1="-87.8113" x2="-141.8136" y2="-87.8113" gradientTransform="matrix(1.11 0 0 -1.11 359.0351 -391.9554)">
					<stop  offset="0" style="stop-color:#000000;stop-opacity:0.4"/>
					<stop  offset="1" style="stop-color:#000000;stop-opacity:0.4"/>
				</linearGradient>
				<path class="st11" d="M192.3-319.7h8.4v50.5h-8.4V-319.7z"/>
				<path class="st2" d="M204.6-319.7c6.8,0,12.3,5.5,12.3,12.3v8.2c0,6.8-5.5,12.3-12.3,12.3h-12.3v-7.7h12.3
					c2.1,0,3.9-1.7,3.9-3.9v-9.6c0-2.1-1.7-3.9-3.9-3.9h-12.3v-7.7L204.6-319.7L204.6-319.7z"/>
				
					<linearGradient id="SVGID_10_" gradientUnits="userSpaceOnUse" x1="-142.7686" y1="-70.568" x2="-145.0972" y2="-75.3675" gradientTransform="matrix(1.11 0 0 -1.11 359.0351 -391.9554)">
					<stop  offset="0" style="stop-color:#000000;stop-opacity:0.8"/>
					<stop  offset="0.4862" style="stop-color:#000000;stop-opacity:0.6059"/>
					<stop  offset="1" style="stop-color:#000000;stop-opacity:0"/>
				</linearGradient>
				<rect x="192.3" y="-312" class="st12" width="8.4" height="13.5"/>
				
					<linearGradient id="SVGID_11_" gradientUnits="userSpaceOnUse" x1="-142.7686" y1="-93.0983" x2="-145.0972" y2="-97.8978" gradientTransform="matrix(1.11 0 0 -1.11 359.0351 -391.9554)">
					<stop  offset="0" style="stop-color:#000000;stop-opacity:0.8"/>
					<stop  offset="0.4862" style="stop-color:#000000;stop-opacity:0.6059"/>
					<stop  offset="1" style="stop-color:#000000;stop-opacity:0"/>
				</linearGradient>
				<rect x="192.3" y="-287" class="st13" width="8.4" height="13.5"/>
			</g>
			
				<g id="path96863" transform="translate(0 366.45848) translate(522.97470875 45.175999999999995) scale(1.11) translate(-519.53019 50.4)">
				<path class="st2" d="M217.2-277h8.4l-1.8,7.7h-8.4L217.2-277z M219-284.7h8.4l8-35H227L219-284.7z"/>
				
					<linearGradient id="SVGID_12_" gradientUnits="userSpaceOnUse" x1="-161.3163" y1="-87.8113" x2="-141.4145" y2="-87.8113" gradientTransform="matrix(1.11 0 0 -1.11 394.5531 -391.9554)">
					<stop  offset="0" style="stop-color:#000000;stop-opacity:0.4"/>
					<stop  offset="1" style="stop-color:#000000;stop-opacity:0.4"/>
				</linearGradient>
				<path class="st14" d="M217.2-277h8.4l-1.8,7.7h-8.4L217.2-277z M219-284.7h8.4l8-35H227L219-284.7z"/>
				
					<linearGradient id="SVGID_13_" gradientUnits="userSpaceOnUse" x1="-154.3129" y1="-101.628" x2="-156.2663" y2="-106.0097" gradientTransform="matrix(1.11 0 0 -1.11 394.5531 -391.9554)">
					<stop  offset="0" style="stop-color:#000000;stop-opacity:0.8"/>
					<stop  offset="0.4862" style="stop-color:#000000;stop-opacity:0.6059"/>
					<stop  offset="1" style="stop-color:#000000;stop-opacity:0"/>
				</linearGradient>
				<polygon class="st15" points="215.5,-269.3 223.9,-269.3 225.7,-277 217.2,-277 				"/>
				
					<linearGradient id="SVGID_14_" gradientUnits="userSpaceOnUse" x1="-144.2709" y1="-79.4078" x2="-148.7336" y2="-80.4097" gradientTransform="matrix(1.11 0 0 -1.11 394.5531 -391.9554)">
					<stop  offset="0" style="stop-color:#000000;stop-opacity:0.8"/>
					<stop  offset="0.4862" style="stop-color:#000000;stop-opacity:0.6059"/>
					<stop  offset="1" style="stop-color:#000000;stop-opacity:0"/>
				</linearGradient>
				<polygon class="st16" points="227,-319.7 235.4,-319.7 227.4,-284.7 219,-284.7 				"/>
				<path class="st2" d="M238.5-269.3l-1.8-7.7h-11.1h-8.4l1.8-7.7h8.4h7.6l-8-35h8.4l11.5,50.5
					C246.9-269.3,238.5-269.3,238.5-269.3z"/>
			</g>
			
				<g id="path96865" transform="translate(0 366.45848) translate(570.5647044499999 45.175999999999995) scale(1.11) translate(-554.40406 50.4)">
				<path class="st2" d="M250.4-319.7h8.4v50.5h-8.4V-319.7z"/>
				
					<linearGradient id="SVGID_15_" gradientUnits="userSpaceOnUse" x1="-166.2229" y1="-87.8113" x2="-157.8137" y2="-87.8113" gradientTransform="matrix(1.11 0 0 -1.11 434.8733 -391.9554)">
					<stop  offset="0" style="stop-color:#000000;stop-opacity:0.4"/>
					<stop  offset="1" style="stop-color:#000000;stop-opacity:0.4"/>
				</linearGradient>
				<path class="st17" d="M250.4-319.7h8.4v50.5h-8.4V-319.7z"/>
				
					<linearGradient id="SVGID_16_" gradientUnits="userSpaceOnUse" x1="-158.7686" y1="-70.568" x2="-161.0973" y2="-75.3675" gradientTransform="matrix(1.11 0 0 -1.11 434.8733 -391.9554)">
					<stop  offset="0" style="stop-color:#000000;stop-opacity:0.8"/>
					<stop  offset="0.4862" style="stop-color:#000000;stop-opacity:0.6059"/>
					<stop  offset="1" style="stop-color:#000000;stop-opacity:0"/>
				</linearGradient>
				<rect x="250.4" y="-312" class="st18" width="8.4" height="13.5"/>
				
					<linearGradient id="SVGID_17_" gradientUnits="userSpaceOnUse" x1="-158.7686" y1="-93.0983" x2="-161.0973" y2="-97.8978" gradientTransform="matrix(1.11 0 0 -1.11 434.8733 -391.9554)">
					<stop  offset="0" style="stop-color:#000000;stop-opacity:0.8"/>
					<stop  offset="0.4862" style="stop-color:#000000;stop-opacity:0.6059"/>
					<stop  offset="1" style="stop-color:#000000;stop-opacity:0"/>
				</linearGradient>
				<rect x="250.4" y="-287" class="st19" width="8.4" height="13.5"/>
				<path class="st2" d="M269.4-289l5.5,19.8h-8.4l-4.9-17.7h-11.2v-7.7h12.3c2.1,0,3.9-1.7,3.9-3.9v-9.6c0-2.1-1.7-3.9-3.9-3.9
					h-12.3v-7.7h12.3c6.8,0,12.3,5.5,12.3,12.3v8.2C274.9-295,272.7-291.2,269.4-289z"/>
			</g>
			
				<g id="path96867" transform="translate(0 366.45848) translate(608.7803394499999 45.175999999999995) scale(1.11) translate(-580.83256 50.4)">
				<path class="st2" d="M285.8-319.7h8.4v50.5h-8.4V-319.7z"/>
				
					<linearGradient id="SVGID_18_" gradientUnits="userSpaceOnUse" x1="-166.8813" y1="-87.8113" x2="-158.4721" y2="-87.8113" gradientTransform="matrix(1.11 0 0 -1.11 471.0366 -391.9554)">
					<stop  offset="0" style="stop-color:#000000;stop-opacity:0.4"/>
					<stop  offset="1" style="stop-color:#000000;stop-opacity:0.4"/>
				</linearGradient>
				<path class="st20" d="M285.8-319.7h8.4v50.5h-8.4V-319.7z"/>
				<path class="st2" d="M303-312h-26.2v-7.7H303V-312z"/>
				
					<linearGradient id="SVGID_19_" gradientUnits="userSpaceOnUse" x1="-159.4271" y1="-70.568" x2="-161.7558" y2="-75.3675" gradientTransform="matrix(1.11 0 0 -1.11 471.0366 -391.9554)">
					<stop  offset="0" style="stop-color:#000000;stop-opacity:0.8"/>
					<stop  offset="0.4862" style="stop-color:#000000;stop-opacity:0.6059"/>
					<stop  offset="1" style="stop-color:#000000;stop-opacity:0"/>
				</linearGradient>
				<rect x="285.8" y="-312" class="st21" width="8.4" height="13.5"/>
			</g>
			
				<g id="path96869" transform="translate(0 366.45848) translate(646.05816875 45.175999999999995) scale(1.11) translate(-606.41619 50.4)">
				<path class="st2" d="M314.7-291.3h8.4v22h-8.4V-291.3z"/>
				
					<linearGradient id="SVGID_20_" gradientUnits="userSpaceOnUse" x1="-174.9625" y1="-100.6129" x2="-166.5533" y2="-100.6129" gradientTransform="matrix(1.11 0 0 -1.11 508.9078 -391.9554)">
					<stop  offset="0" style="stop-color:#000000;stop-opacity:0.4"/>
					<stop  offset="1" style="stop-color:#000000;stop-opacity:0.4"/>
				</linearGradient>
				<path class="st22" d="M314.7-291.3h8.4v22h-8.4V-291.3z"/>
				<path class="st2" d="M335.4-319.7l-12.3,28.4h-8.4l-12.3-28.4h8.4l8.1,18.7l8.1-18.7H335.4z"/>
				
					<linearGradient id="SVGID_21_" gradientUnits="userSpaceOnUse" x1="-167.5083" y1="-89.2266" x2="-169.8369" y2="-94.0261" gradientTransform="matrix(1.11 0 0 -1.11 508.9078 -391.9554)">
					<stop  offset="0" style="stop-color:#000000;stop-opacity:0.8"/>
					<stop  offset="0.4862" style="stop-color:#000000;stop-opacity:0.6059"/>
					<stop  offset="1" style="stop-color:#000000;stop-opacity:0"/>
				</linearGradient>
				<rect x="314.7" y="-291.3" class="st23" width="8.4" height="13.5"/>
			</g>
		</g>
		<g>
			<g>
				<path class="st24" d="M112.7,32.2l4.5,15.1c0.6,1.5,3.8,2.2,6,2.5c9.7,1.3,19.5,2.7,29.3,3.3c12.1,0.7,24.2,1.3,36.3,0.8
					c13.1-0.6,26.4-1.1,39.2-4.7c2.4-0.6,3.5-1.7,4.1-3.8l3.7-11.9l2.1-1.7c1.9-1,4.1-1.4,6.2-2.1"/>
				<path class="st24" d="M205.3,75c4.6,3.4,34-0.5,34-0.5l0,0c4.6-1.8,6.3-4.1,6.3-8.6c0-10.7,0-21.5,0-32.2
					c0-5.1-3.3-9.4-8.2-10.7c-3-0.8-2.4,0.3-4.5-2.1c-2.1-2.3-18.2-15-21.9-16.6c0,0,0.2,0.1,0,0c-1.1-0.6-3.7-1.1-5-1.1l-61-0.1
					c-5.7-0.1-10.6,1.5-14.8,5.1c-3.8,3.2-12.1,9.6-14.8,12.3l-4.2,2.6c-5.5,1.4-8.7,6.3-8.2,12.3c0.6,8,0.7,16,0.1,24
					c-1.1,13.9,2.1,13.4,9.4,14.7c7.9,1.4,15.9,2,23.9,2.5c1.8,0.2,4.7-0.7,7-1.5"/>
				<path class="st24" d="M228.8,22.9c-4.3-4.4-13.8-12.5-18.7-15.2c-0.6-0.3-1.3-0.5-2.8-0.5h-66c-1.5,0-3.2,0.5-4.5,1.2
					c-5,2.8-13.2,9.6-17.8,14.6l1.4,0.2l0,0l12.8,1.1l1.1-1.1c24.8,0,54.2-0.2,78.9-0.1l1.9,1.8L228.8,22.9"/>
				<polyline class="st24" points="104.1,29.1 141.3,41.3 205.3,41.3 235.7,33.2 				"/>
				<path class="st24" d="M243.6,72.9c0.6,5.1-1.4,7.4-6.2,7.4c-8.5,0-17.1,0-25.6,0c-4.9,0-6-0.2-6.5-4.9l-10.8-10.3
					c-13.5,0-26.9,0-40.4,0l-10.7,10.3c-0.1,2.9-2,4.9-5,4.9c-9.6,0.1-19.3,0.1-28.9,0c-3.2,0-5-3.1-4.5-7.4"/>
				<line class="st24" x1="143.5" y1="75.3" x2="205.5" y2="75.3"/>
				<path class="st24" d="M117.6,54.2"/>
				<polygon class="st24" points="113.4,66 120.3,70.3 137.5,70.4 144.2,64.5 141.7,57.1 117.6,54.4 				"/>
				<path class="st24" d="M115.4,20.9l-4.4-5.6l-11.8,0c-2.3,0.1-5.2,0-1.2,3.6c2.6,2.3,5.5,4.5,8.2,6.7"/>
				<polyline class="st24" points="133.5,39 133.3,43.5 116.6,45.4 				"/>
				<polygon class="st24" points="234.8,66 227.9,70.3 210.7,70.4 204,64.5 206.5,57.1 230.6,54.4 				"/>
				<polyline class="st24" points="215.2,39 215.4,43.5 232,45.4 				"/>
				<path class="st24" d="M233.7,20.9l4.4-5.6l11.8,0c2.3,0.1,5.2,0,1.2,3.6c-2.6,2.3-5.5,4.5-8.2,6.7"/>
			</g>
		</g>
	</g>
</g>
</svg>
