<?xml version="1.0" encoding="utf-8"?>
<!-- Generator: Adobe Illustrator 23.0.1, SVG Export Plug-In . SVG Version: 6.00 Build 0)  -->
<svg version="1.1"
	 id="svg96802" xmlns:cc="http://creativecommons.org/ns#" xmlns:dc="http://purl.org/dc/elements/1.1/" xmlns:rdf="http://www.w3.org/1999/02/22-rdf-syntax-ns#" xmlns:svg="http://www.w3.org/2000/svg"
	 xmlns="http://www.w3.org/2000/svg" xmlns:xlink="http://www.w3.org/1999/xlink" x="0px" y="0px" viewBox="0 0 348.6 69"
	 style="enable-background:new 0 0 348.6 69;" xml:space="preserve">
<style type="text/css">
	.st0{display:none;fill:#161619;}
	.st1{display:none;}
	.st2{display:inline;fill:#A6B2BB;}
	.st3{fill:#D9BC78;}
	.st4{opacity:0.64;fill:url(#SVGID_1_);enable-background:new    ;}
	.st5{opacity:0.64;fill:url(#SVGID_2_);enable-background:new    ;}
	.st6{opacity:0.64;fill:url(#SVGID_3_);enable-background:new    ;}
	.st7{opacity:0.64;fill:url(#SVGID_4_);enable-background:new    ;}
	.st8{opacity:0.64;fill:url(#SVGID_5_);enable-background:new    ;}
	.st9{opacity:0.64;fill:url(#SVGID_6_);enable-background:new    ;}
	.st10{opacity:0.64;fill:url(#SVGID_7_);enable-background:new    ;}
	.st11{opacity:0.64;fill:url(#SVGID_8_);enable-background:new    ;}
	.st12{opacity:0.64;fill:url(#SVGID_9_);enable-background:new    ;}
	.st13{opacity:0.64;fill:url(#SVGID_10_);enable-background:new    ;}
	.st14{opacity:0.64;fill:url(#SVGID_11_);enable-background:new    ;}
	.st15{opacity:0.64;fill:url(#SVGID_12_);enable-background:new    ;}
	.st16{opacity:0.64;fill:url(#SVGID_13_);enable-background:new    ;}
	.st17{opacity:0.64;fill:url(#SVGID_14_);enable-background:new    ;}
	.st18{opacity:0.64;fill:url(#SVGID_15_);enable-background:new    ;}
	.st19{opacity:0.64;fill:url(#SVGID_16_);enable-background:new    ;}
	.st20{opacity:0.64;fill:url(#SVGID_17_);enable-background:new    ;}
	.st21{opacity:0.64;fill:url(#SVGID_18_);enable-background:new    ;}
	.st22{opacity:0.64;fill:url(#SVGID_19_);enable-background:new    ;}
	.st23{opacity:0.64;fill:url(#SVGID_20_);enable-background:new    ;}
	.st24{opacity:0.64;fill:url(#SVGID_21_);enable-background:new    ;}
	.st25{display:inline;}
	.st26{fill:none;stroke:#AFAFAF;stroke-width:2;stroke-linecap:round;stroke-linejoin:round;stroke-miterlimit:10;}
</style>
<g id="logo-group">
	<g id="logo-center" transform="translate(0 0)">
		<rect x="-337.5" y="-404.5" class="st0" width="1024" height="768"/>
		<g id="slogan" transform="translate(0 0)" class="st1">
			<path id="path96810" class="st2" d="M58.5,105.5v-21c1.6-0.2,3.9-0.2,6.8-0.2c2.3,0,4,0.4,4.9,1.3c0.9,0.9,1.4,2.5,1.4,4.9
				c0,2.4-0.5,4.1-1.4,5c-0.9,0.9-2.5,1.3-4.8,1.3c-2.2,0-4.1-0.1-5.7-0.2v8.9H58.5z M59.7,95.7h5.6c1.9,0,3.2-0.4,3.9-1.1
				c0.7-0.7,1.1-2.1,1.1-4.1c0-2-0.4-3.4-1.1-4.1c-0.7-0.7-2-1.1-3.9-1.1c-2.1,0-4,0-5.6,0.1V95.7z"/>
			<path id="path96812" class="st2" d="M79.3,84.7h0.5c0.3,0,0.5,0.2,0.5,0.5V87c0,0.3-0.2,0.5-0.5,0.5h-0.5c-0.3,0-0.5-0.2-0.5-0.5
				v-1.8C78.8,84.9,78.9,84.7,79.3,84.7z M80.1,105.5h-1.2V90.8h1.2V105.5z"/>
			<path id="path96814" class="st2" d="M94.5,104.6l0.1,0.9c-0.4,0.2-1.2,0.2-2.1,0.2c-1,0-1.8-0.3-2.4-0.9
				c-0.6-0.6-0.9-1.4-0.9-2.4v-7.8l-2.6,1.1v-0.9l2.6-1.1v-9.6h1.2v9.1l3.5-1.6v0.9l-3.5,1.5v8.1c0,1.5,0.8,2.3,2.3,2.3H94.5z"/>
			<path id="path96816" class="st2" d="M109.1,98.7h-7.8c0.1,2.2,0.5,3.8,1.4,4.7c0.9,0.9,2.2,1.3,4.1,1.3c1.7,0,3.4-0.1,5-0.4
				l0.2,0.9c-1.2,0.4-3,0.6-5.3,0.6c-2.4,0-4.1-0.6-5.1-1.8c-1-1.2-1.6-3.2-1.6-6s0.5-4.8,1.5-5.9c1-1.2,2.6-1.7,5-1.7
				c3.9,0,5.8,1.4,5.9,4.3c0,1.3-0.2,2.3-0.7,3C111.1,98.4,110.3,98.7,109.1,98.7z M101.3,97.7h7.6c1.5,0,2.2-1,2.2-2.9
				c0-1.1-0.4-2-1.2-2.5c-0.7-0.5-1.9-0.8-3.4-0.8c-1.9,0-3.2,0.5-4,1.4C101.7,93.8,101.3,95.4,101.3,97.7L101.3,97.7z"/>
			<path id="path96818" class="st2" d="M128.6,84.6l-5,4.1l-0.5-0.6l4.7-4.4L128.6,84.6z M126.7,98.9l-4.8-0.7
				c-1.1-0.2-1.9-0.5-2.4-1.1c-0.5-0.6-0.8-1.5-0.8-2.7c0-1.7,0.4-2.8,1.2-3.3c0.8-0.5,2.2-0.7,4.3-0.7c2.2,0,4.1,0.2,5.8,0.4
				l-0.1,0.9c-2.3-0.1-4.2-0.2-5.6-0.2c-1.7,0-2.9,0.1-3.5,0.4c-0.6,0.3-0.9,1.1-0.9,2.4c0,1,0.2,1.6,0.6,2c0.4,0.4,1,0.7,1.8,0.8
				l4.8,0.7c1.1,0.2,1.9,0.6,2.5,1.2c0.6,0.6,0.9,1.5,0.9,2.6c0,1.7-0.4,2.8-1.3,3.3c-0.9,0.5-2.4,0.8-4.6,0.8
				c-1.9,0-3.8-0.1-5.4-0.4l0.1-0.9c1.7,0.1,3.5,0.2,5.2,0.2c1.9,0,3.2-0.2,3.8-0.6c0.7-0.4,1-1.2,1-2.5c0-0.9-0.2-1.5-0.7-1.9
				C128.2,99.3,127.6,99.1,126.7,98.9L126.7,98.9z"/>
			<path id="path96820" class="st2" d="M136,85.3l-0.2-0.9c0.1,0,0.4-0.1,0.9-0.2c0.5-0.1,0.8-0.1,0.9-0.2c0.1,0,0.4-0.1,0.8-0.1
				c0.4-0.1,0.7-0.1,1-0.1c0.3,0,0.7,0,1.2-0.1c0.5,0,1,0,1.6,0c4,0,6,1.6,6,4.7c0,0.9-0.2,1.6-0.6,2.4c-0.4,0.7-0.9,1.3-1.4,1.9
				c-0.5,0.5-1.1,1.1-1.7,1.7c-0.5,0.6-1,1.3-1.4,2.1c-0.4,0.8-0.6,1.7-0.6,2.7h-1.1c0-1.1,0.2-2,0.5-2.9c0.4-0.9,0.9-1.6,1.4-2.2
				c0.5-0.6,1.1-1.1,1.6-1.7c0.5-0.5,1-1.1,1.4-1.7c0.4-0.6,0.6-1.3,0.6-2.1c0-1.3-0.4-2.2-1.2-2.9c-0.8-0.6-2-0.9-3.7-0.9
				C140.2,84.9,138.2,85,136,85.3L136,85.3z M141.6,102.6h0.4c0.3,0,0.5,0.2,0.5,0.5v1.8c0,0.3-0.2,0.5-0.5,0.5h-0.4
				c-0.3,0-0.5-0.2-0.5-0.5v-1.8C141.1,102.8,141.3,102.6,141.6,102.6z"/>
			<path id="path96822" class="st2" d="M177.6,84.5v20.4c0,0.4-0.2,0.6-0.6,0.6h-1.6c-0.3,0-0.6-0.2-0.7-0.5l-9.1-17.1
				c-0.6-1.1-0.9-1.8-1.1-2.2h-0.7c0,0.5,0,1.3,0,2.3v17.6h-1.2V85.1c0-0.4,0.2-0.6,0.6-0.6h1.5c0.3,0,0.6,0.2,0.7,0.5l8.8,16.8
				c0.2,0.3,0.6,1.1,1.4,2.6h0.8c0-0.3,0-0.8,0-1.4c0-0.6,0-1.1,0-1.4v-17H177.6z"/>
			<path id="path96824" class="st2" d="M186.6,84.7h0.5c0.3,0,0.5,0.2,0.5,0.5V87c0,0.3-0.2,0.5-0.5,0.5h-0.5
				c-0.3,0-0.5-0.2-0.5-0.5v-1.8C186.1,84.9,186.3,84.7,186.6,84.7z M187.5,105.5h-1.2V90.8h1.2V105.5z"/>
			<path id="path96826" class="st2" d="M204.2,98.7h-7.8c0.1,2.2,0.5,3.8,1.4,4.7c0.9,0.9,2.2,1.3,4.1,1.3c1.7,0,3.4-0.1,5-0.4
				l0.2,0.9c-1.2,0.4-3,0.6-5.3,0.6c-2.4,0-4.1-0.6-5.1-1.8c-1-1.2-1.6-3.2-1.6-6s0.5-4.8,1.5-5.9c1-1.2,2.6-1.7,5-1.7
				c3.9,0,5.8,1.4,5.9,4.3c0,1.3-0.2,2.3-0.7,3C206.2,98.4,205.4,98.7,204.2,98.7z M196.4,97.7h7.6c1.5,0,2.2-1,2.2-2.9
				c0-1.1-0.4-2-1.2-2.5c-0.7-0.5-1.9-0.8-3.4-0.8c-1.9,0-3.2,0.5-4,1.4C196.8,93.8,196.4,95.4,196.4,97.7L196.4,97.7z"/>
			<path id="path96828" class="st2" d="M222.2,84.7h0.5c0.3,0,0.5,0.2,0.5,0.5V87c0,0.3-0.2,0.5-0.5,0.5h-0.5
				c-0.3,0-0.5-0.2-0.5-0.5v-1.8C221.8,84.9,221.9,84.7,222.2,84.7z M223.1,90.8v15.8c0,2-0.7,3.7-2.2,5.2l-0.7-0.5
				c1.1-1.4,1.7-3,1.7-4.7V90.8H223.1z"/>
			<path id="path96830" class="st2" d="M239.9,98.7h-7.8c0.1,2.2,0.5,3.8,1.4,4.7c0.9,0.9,2.2,1.3,4.1,1.3c1.7,0,3.4-0.1,5-0.4
				l0.2,0.9c-1.2,0.4-3,0.6-5.3,0.6c-2.4,0-4.1-0.6-5.1-1.8c-1-1.2-1.6-3.2-1.6-6s0.5-4.8,1.5-5.9c1-1.2,2.6-1.7,5-1.7
				c3.9,0,5.8,1.4,5.9,4.3c0,1.3-0.2,2.3-0.7,3C241.9,98.4,241.1,98.7,239.9,98.7z M232.1,97.7h7.6c1.5,0,2.2-1,2.2-2.9
				c0-1.1-0.4-2-1.2-2.5c-0.7-0.5-1.9-0.8-3.4-0.8c-1.9,0-3.2,0.5-4,1.4C232.5,93.8,232.1,95.4,232.1,97.7L232.1,97.7z"/>
			<path id="path96832" class="st2" d="M262.2,84.2v21.3h-0.9l-0.2-2.4c-2.1,1.9-4.1,2.8-6,2.8c-1.9,0-3.2-0.6-4-1.8
				c-0.8-1.2-1.2-3.2-1.2-5.9c0-2.8,0.4-4.8,1.2-5.9c0.8-1.2,2.2-1.8,4.1-1.8c1.8,0,3.8,0.5,5.9,1.5c-0.1-0.5-0.1-1.5-0.1-2.9v-4.9
				H262.2z M261,102.1v-9.2c-2.3-0.9-4.2-1.3-5.6-1.3c-1.6,0-2.7,0.5-3.3,1.5c-0.6,1-1,2.7-1,5.1c0,2.4,0.3,4.1,1,5.1
				c0.6,1,1.7,1.5,3.3,1.5c0.9,0,1.7-0.2,2.6-0.6C258.7,103.7,259.8,103,261,102.1z"/>
			<path id="path96834" class="st2" d="M274.3,88.7l-0.5-0.6l4.7-4.4l0.8,0.9L274.3,88.7z M281.5,104.4v1h-12.1v-1l10.5-12.6h-10.5
				v-1.1h11.9v1.1l-10.6,12.6H281.5z"/>
			<path id="path96836" class="st2" d="M290.4,94.4l-0.1,4.8h-1l-0.1-4.8V84.3h1.2V94.4z M289.6,102.6h0.4c0.3,0,0.5,0.2,0.5,0.5
				v1.8c0,0.3-0.2,0.5-0.5,0.5h-0.4c-0.3,0-0.5-0.2-0.5-0.5v-1.8C289.1,102.8,289.3,102.6,289.6,102.6z"/>
			<path id="path96838" class="st2" d="M114.4,134.2v1.1h-14v-1.1l12.4-18.8h-12.3v-1.1h13.7v1.1l-12.4,18.8H114.4z"/>
			<path id="path96840" class="st2" d="M121.4,121.8l-0.1-0.9c3.1-0.4,5.4-0.6,7-0.6c2.9,0,4.3,1.4,4.3,4.3v10.8h-0.9l-0.2-2.7
				c-0.7,0.7-1.8,1.4-3,2c-1.3,0.6-2.5,0.9-3.8,0.9c-1.3,0-2.2-0.3-2.9-1c-0.7-0.7-1-1.6-1-2.8v-1.8c0-1.1,0.3-2,0.9-2.6
				c0.6-0.6,1.6-0.9,2.7-0.9h7.1v-1.9c0-1-0.2-1.8-0.7-2.3c-0.5-0.5-1.3-0.8-2.5-0.8C126.4,121.3,124.1,121.5,121.4,121.8
				L121.4,121.8z M121.9,129.9v1.6c0,1.8,1,2.7,2.9,2.8c1,0,2.1-0.2,3.4-0.8c1.3-0.5,2.3-1.2,3.2-2v-4.2l-6.9,0.1
				C122.8,127.4,121.9,128.3,121.9,129.9L121.9,129.9z"/>
			<path id="path96842" class="st2" d="M152.5,114v21.3h-0.9l-0.2-2.4c-2.1,1.9-4.1,2.8-6,2.8s-3.2-0.6-4-1.8
				c-0.8-1.2-1.2-3.2-1.2-5.9c0-2.8,0.4-4.8,1.2-5.9c0.8-1.2,2.2-1.8,4.1-1.8c1.8,0,3.8,0.5,5.9,1.5c-0.1-0.5-0.1-1.5-0.1-2.9V114
				H152.5z M151.3,131.9v-9.2c-2.3-0.9-4.2-1.3-5.6-1.3c-1.6,0-2.7,0.5-3.3,1.5c-0.6,1-1,2.7-1,5.1c0,2.4,0.3,4.1,1,5.1
				c0.6,1,1.7,1.5,3.3,1.5c0.9,0,1.7-0.2,2.6-0.6C149,133.5,150.1,132.8,151.3,131.9z"/>
			<path id="path96844" class="st2" d="M171.8,134.2v1h-12.1v-1l10.5-12.6h-10.5v-1.1h11.9v1.1l-10.6,12.6L171.8,134.2z"/>
			<path id="path96846" class="st2" d="M200,120.6l-4.9,14.3c-0.1,0.3-0.3,0.4-0.5,0.4h-1.2c-0.3,0-0.5-0.1-0.6-0.4l-3.4-11.1
				c-0.3-1-0.5-1.7-0.6-2.2h-0.3l-0.7,2.2l-3.4,11.1c-0.1,0.3-0.3,0.4-0.6,0.4h-1.2c-0.3,0-0.4-0.1-0.5-0.4l-4.9-14.3h1.3l3.9,11.7
				c0.1,0.3,0.2,0.6,0.4,1.2c0.2,0.5,0.3,0.8,0.3,0.9h0.4l0.6-2.1l3.5-11.2c0.1-0.3,0.2-0.4,0.5-0.4h1.1c0.3,0,0.5,0.1,0.5,0.4
				l3.5,11.2l0.6,2.1h0.4c0.1-0.2,0.2-0.6,0.3-1c0.1-0.5,0.3-0.8,0.3-1l3.9-11.7H200z"/>
			<path id="path96848" class="st2" d="M207.2,122c1-1.2,2.7-1.7,5.1-1.7s4.1,0.6,5,1.7c1,1.2,1.5,3.1,1.5,6c0,2.8-0.5,4.8-1.5,6
				c-1,1.2-2.7,1.7-5.1,1.7c-2.4,0-4.1-0.6-5.1-1.7c-1-1.2-1.5-3.1-1.5-6C205.8,125.1,206.2,123.1,207.2,122z M216.4,122.8
				c-0.8-1-2.1-1.4-4.1-1.4s-3.3,0.5-4.1,1.4c-0.8,1-1.2,2.7-1.2,5.2c0,2.5,0.4,4.2,1.2,5.2c0.8,1,2.1,1.4,4.1,1.4s3.3-0.5,4.1-1.4
				c0.8-1,1.2-2.7,1.2-5.2C217.6,125.4,217.2,123.7,216.4,122.8z"/>
			<path id="path96850" class="st2" d="M231.6,118.5l-0.5-0.6l4.7-4.4l0.8,0.9L231.6,118.5z M227.4,120.6l0.1,2.6
				c2.5-2,4.9-2.9,7-2.9c2.6,0,4,1.3,4,4v11h-1.2v-10.8c0-1.1-0.2-1.9-0.7-2.4c-0.5-0.5-1.2-0.8-2.3-0.8c-1,0-2,0.2-2.9,0.7
				c-1,0.4-2.2,1.1-3.6,2.1v11.1h-1.2v-14.7H227.4z"/>
			<path id="path96852" class="st2" d="M248.5,124.2l-0.1,4.8h-1l-0.1-4.8v-10.1h1.2V124.2z M247.7,132.4h0.4c0.3,0,0.5,0.2,0.5,0.5
				v1.8c0,0.3-0.2,0.5-0.5,0.5h-0.4c-0.3,0-0.5-0.2-0.5-0.5v-1.8C247.2,132.6,247.3,132.4,247.7,132.4L247.7,132.4z"/>
		</g>
		<g id="title" transform="translate(0 0)">
			
				<g id="path96855" transform="translate(0 366.45848) translate(341.2585512499999 44.376799999999996) scale(1.11) translate(-387.82194 51.12)">
				<path class="st3" d="M96.1-371.4H84.7c0-0.1-0.1-0.1-0.1-0.2c-0.5-1.4-0.8-2.8-0.8-4.4v-27.3c0-1.6,0.3-3.1,0.9-4.6h11.4
					c-2.1,0-3.9,1.7-3.9,3.9v28.7c0,1.7,1.1,3.2,2.7,3.7C95.3-371.5,95.7-371.4,96.1-371.4z"/>
				
					<linearGradient id="SVGID_1_" gradientUnits="userSpaceOnUse" x1="-126.1964" y1="-182.9465" x2="-113.933" y2="-182.9465" gradientTransform="matrix(1.11 0 0 -1.11 223.9204 -592.7098)">
					<stop  offset="0" style="stop-color:#000000;stop-opacity:0.4"/>
					<stop  offset="1" style="stop-color:#000000;stop-opacity:0.4"/>
				</linearGradient>
				<path class="st4" d="M96.1-371.4H84.7c0-0.1-0.1-0.1-0.1-0.2c-0.5-1.4-0.8-2.8-0.8-4.4v-27.3c0-1.6,0.3-3.1,0.9-4.6h11.4
					c-2.1,0-3.9,1.7-3.9,3.9v28.7c0,1.7,1.1,3.2,2.7,3.7C95.3-371.5,95.7-371.4,96.1-371.4z"/>
				
					<linearGradient id="SVGID_2_" gradientUnits="userSpaceOnUse" x1="-113.008" y1="-167.3611" x2="-115.5823" y2="-172.4441" gradientTransform="matrix(1.11 0 0 -1.11 223.9204 -592.7098)">
					<stop  offset="0" style="stop-color:#000000;stop-opacity:0.8"/>
					<stop  offset="0.5047" style="stop-color:#000000;stop-opacity:0.6059"/>
					<stop  offset="1" style="stop-color:#000000;stop-opacity:0"/>
				</linearGradient>
				<path class="st5" d="M83.8-403.3v27.3c0,1.5,0.3,3,0.8,4.4h10.3c-1.6-0.5-2.7-2-2.7-3.7V-404c0-2.1,1.7-3.9,3.9-3.9H84.7
					C84.1-406.4,83.8-404.9,83.8-403.3z"/>
				<path class="st3" d="M100-400v-4c0-2.1-1.7-3.9-3.9-3.9H84.7c1.8-4.5,6.2-7.7,11.4-7.7c6.8,0,12.3,5.5,12.3,12.3v3.3H100
					L100-400z M100-381.1v5.8c0,2.1-1.7,3.9-3.9,3.9H84.7c1.8,4.5,6.2,7.7,11.4,7.7c6.8,0,12.3-5.5,12.3-12.3v-5.1
					C108.4-381.1,100-381.1,100-381.1z"/>
			</g>
			
				<g id="path96857" transform="translate(0 366.45848) translate(379.57658374999994 45.175999999999995) scale(1.11) translate(-414.34269 50.4)">
				<path class="st3" d="M112.1-372.1h8.4l-1.8,7.7h-8.4L112.1-372.1z M113.8-379.8h8.4l8-35h-8.4L113.8-379.8z"/>
				
					<linearGradient id="SVGID_3_" gradientUnits="userSpaceOnUse" x1="-137.3163" y1="-182.9465" x2="-117.4145" y2="-182.9465" gradientTransform="matrix(1.11 0 0 -1.11 262.7256 -592.6906)">
					<stop  offset="0" style="stop-color:#000000;stop-opacity:0.4"/>
					<stop  offset="1" style="stop-color:#000000;stop-opacity:0.4"/>
				</linearGradient>
				<path class="st6" d="M112.1-372.1h8.4l-1.8,7.7h-8.4L112.1-372.1z M113.8-379.8h8.4l8-35h-8.4L113.8-379.8z"/>
				
					<linearGradient id="SVGID_4_" gradientUnits="userSpaceOnUse" x1="-130.3129" y1="-196.7631" x2="-132.2663" y2="-201.1448" gradientTransform="matrix(1.11 0 0 -1.11 262.7256 -592.6906)">
					<stop  offset="0" style="stop-color:#000000;stop-opacity:0.8"/>
					<stop  offset="0.4862" style="stop-color:#000000;stop-opacity:0.6059"/>
					<stop  offset="1" style="stop-color:#000000;stop-opacity:0"/>
				</linearGradient>
				<polygon class="st7" points="110.3,-364.4 118.7,-364.4 120.5,-372.1 112.1,-372.1 				"/>
				
					<linearGradient id="SVGID_5_" gradientUnits="userSpaceOnUse" x1="-120.2708" y1="-174.543" x2="-124.7336" y2="-175.5448" gradientTransform="matrix(1.11 0 0 -1.11 262.7256 -592.6906)">
					<stop  offset="0" style="stop-color:#000000;stop-opacity:0.8"/>
					<stop  offset="0.4862" style="stop-color:#000000;stop-opacity:0.6059"/>
					<stop  offset="1" style="stop-color:#000000;stop-opacity:0"/>
				</linearGradient>
				<polygon class="st8" points="121.8,-414.8 130.2,-414.8 122.2,-379.8 113.8,-379.8 				"/>
				<path class="st3" d="M133.3-364.4l-1.8-7.7h-11.1h-8.4l1.8-7.7h8.4h7.6l-8-35h8.4l11.5,50.5
					C141.7-364.4,133.3-364.4,133.3-364.4z"/>
			</g>
			
				<g id="path96859" transform="translate(0 366.45848) translate(427.16657945 45.175999999999995) scale(1.11) translate(-449.21656 50.4)">
				<path class="st3" d="M145.2-414.8h8.4v50.5h-8.4V-414.8z"/>
				
					<linearGradient id="SVGID_6_" gradientUnits="userSpaceOnUse" x1="-142.2229" y1="-182.9464" x2="-133.8137" y2="-182.9464" gradientTransform="matrix(1.11 0 0 -1.11 303.0458 -592.6906)">
					<stop  offset="0" style="stop-color:#000000;stop-opacity:0.4"/>
					<stop  offset="1" style="stop-color:#000000;stop-opacity:0.4"/>
				</linearGradient>
				<path class="st9" d="M145.2-414.8h8.4v50.5h-8.4V-414.8z"/>
				
					<linearGradient id="SVGID_7_" gradientUnits="userSpaceOnUse" x1="-134.7686" y1="-165.7031" x2="-137.0973" y2="-170.5027" gradientTransform="matrix(1.11 0 0 -1.11 303.0458 -592.6906)">
					<stop  offset="0" style="stop-color:#000000;stop-opacity:0.8"/>
					<stop  offset="0.4862" style="stop-color:#000000;stop-opacity:0.6059"/>
					<stop  offset="1" style="stop-color:#000000;stop-opacity:0"/>
				</linearGradient>
				<rect x="145.2" y="-407.1" class="st10" width="8.4" height="13.5"/>
				
					<linearGradient id="SVGID_8_" gradientUnits="userSpaceOnUse" x1="-134.7686" y1="-188.2334" x2="-137.0973" y2="-193.0329" gradientTransform="matrix(1.11 0 0 -1.11 303.0458 -592.6906)">
					<stop  offset="0" style="stop-color:#000000;stop-opacity:0.8"/>
					<stop  offset="0.4862" style="stop-color:#000000;stop-opacity:0.6059"/>
					<stop  offset="1" style="stop-color:#000000;stop-opacity:0"/>
				</linearGradient>
				<rect x="145.2" y="-382.1" class="st11" width="8.4" height="13.5"/>
				<path class="st3" d="M164.2-384.2l5.5,19.8h-8.4l-4.9-17.7h-11.2v-7.7h12.3c2.1,0,3.9-1.7,3.9-3.9v-9.6c0-2.1-1.7-3.9-3.9-3.9
					h-12.3v-7.7h12.3c6.8,0,12.3,5.5,12.3,12.3v8.2C169.7-390.1,167.5-386.4,164.2-384.2z"/>
			</g>
			
				<g id="path96861" transform="translate(0 366.45848) translate(488.33799124999996 45.175999999999995) scale(1.11) translate(-496.32594 50.4)">
				<path class="st3" d="M192.3-414.8h8.4v50.5h-8.4V-414.8z"/>
				
					<linearGradient id="SVGID_9_" gradientUnits="userSpaceOnUse" x1="-150.2228" y1="-182.9464" x2="-141.8136" y2="-182.9464" gradientTransform="matrix(1.11 0 0 -1.11 359.0351 -592.6906)">
					<stop  offset="0" style="stop-color:#000000;stop-opacity:0.4"/>
					<stop  offset="1" style="stop-color:#000000;stop-opacity:0.4"/>
				</linearGradient>
				<path class="st12" d="M192.3-414.8h8.4v50.5h-8.4V-414.8z"/>
				<path class="st3" d="M204.6-414.8c6.8,0,12.3,5.5,12.3,12.3v8.2c0,6.8-5.5,12.3-12.3,12.3h-12.3v-7.7h12.3
					c2.1,0,3.9-1.7,3.9-3.9v-9.6c0-2.1-1.7-3.9-3.9-3.9h-12.3v-7.7L204.6-414.8L204.6-414.8z"/>
				
					<linearGradient id="SVGID_10_" gradientUnits="userSpaceOnUse" x1="-142.7686" y1="-165.7031" x2="-145.0972" y2="-170.5027" gradientTransform="matrix(1.11 0 0 -1.11 359.0351 -592.6906)">
					<stop  offset="0" style="stop-color:#000000;stop-opacity:0.8"/>
					<stop  offset="0.4862" style="stop-color:#000000;stop-opacity:0.6059"/>
					<stop  offset="1" style="stop-color:#000000;stop-opacity:0"/>
				</linearGradient>
				<rect x="192.3" y="-407.1" class="st13" width="8.4" height="13.5"/>
				
					<linearGradient id="SVGID_11_" gradientUnits="userSpaceOnUse" x1="-142.7686" y1="-188.2334" x2="-145.0972" y2="-193.0329" gradientTransform="matrix(1.11 0 0 -1.11 359.0351 -592.6906)">
					<stop  offset="0" style="stop-color:#000000;stop-opacity:0.8"/>
					<stop  offset="0.4862" style="stop-color:#000000;stop-opacity:0.6059"/>
					<stop  offset="1" style="stop-color:#000000;stop-opacity:0"/>
				</linearGradient>
				<rect x="192.3" y="-382.1" class="st14" width="8.4" height="13.5"/>
			</g>
			
				<g id="path96863" transform="translate(0 366.45848) translate(522.97470875 45.175999999999995) scale(1.11) translate(-519.53019 50.4)">
				<path class="st3" d="M217.2-372.1h8.4l-1.8,7.7h-8.4L217.2-372.1z M219-379.8h8.4l8-35H227L219-379.8z"/>
				
					<linearGradient id="SVGID_12_" gradientUnits="userSpaceOnUse" x1="-161.3163" y1="-182.9465" x2="-141.4145" y2="-182.9465" gradientTransform="matrix(1.11 0 0 -1.11 394.5531 -592.6906)">
					<stop  offset="0" style="stop-color:#000000;stop-opacity:0.4"/>
					<stop  offset="1" style="stop-color:#000000;stop-opacity:0.4"/>
				</linearGradient>
				<path class="st15" d="M217.2-372.1h8.4l-1.8,7.7h-8.4L217.2-372.1z M219-379.8h8.4l8-35H227L219-379.8z"/>
				
					<linearGradient id="SVGID_13_" gradientUnits="userSpaceOnUse" x1="-154.3129" y1="-196.7631" x2="-156.2663" y2="-201.1448" gradientTransform="matrix(1.11 0 0 -1.11 394.5531 -592.6906)">
					<stop  offset="0" style="stop-color:#000000;stop-opacity:0.8"/>
					<stop  offset="0.4862" style="stop-color:#000000;stop-opacity:0.6059"/>
					<stop  offset="1" style="stop-color:#000000;stop-opacity:0"/>
				</linearGradient>
				<polygon class="st16" points="215.5,-364.4 223.9,-364.4 225.7,-372.1 217.2,-372.1 				"/>
				
					<linearGradient id="SVGID_14_" gradientUnits="userSpaceOnUse" x1="-144.2709" y1="-174.543" x2="-148.7336" y2="-175.5448" gradientTransform="matrix(1.11 0 0 -1.11 394.5531 -592.6906)">
					<stop  offset="0" style="stop-color:#000000;stop-opacity:0.8"/>
					<stop  offset="0.4862" style="stop-color:#000000;stop-opacity:0.6059"/>
					<stop  offset="1" style="stop-color:#000000;stop-opacity:0"/>
				</linearGradient>
				<polygon class="st17" points="227,-414.8 235.4,-414.8 227.4,-379.8 219,-379.8 				"/>
				<path class="st3" d="M238.5-364.4l-1.8-7.7h-11.1h-8.4l1.8-7.7h8.4h7.6l-8-35h8.4l11.5,50.5
					C246.9-364.4,238.5-364.4,238.5-364.4z"/>
			</g>
			
				<g id="path96865" transform="translate(0 366.45848) translate(570.5647044499999 45.175999999999995) scale(1.11) translate(-554.40406 50.4)">
				<path class="st3" d="M250.4-414.8h8.4v50.5h-8.4V-414.8z"/>
				
					<linearGradient id="SVGID_15_" gradientUnits="userSpaceOnUse" x1="-166.2229" y1="-182.9464" x2="-157.8137" y2="-182.9464" gradientTransform="matrix(1.11 0 0 -1.11 434.8733 -592.6906)">
					<stop  offset="0" style="stop-color:#000000;stop-opacity:0.4"/>
					<stop  offset="1" style="stop-color:#000000;stop-opacity:0.4"/>
				</linearGradient>
				<path class="st18" d="M250.4-414.8h8.4v50.5h-8.4V-414.8z"/>
				
					<linearGradient id="SVGID_16_" gradientUnits="userSpaceOnUse" x1="-158.7686" y1="-165.7031" x2="-161.0973" y2="-170.5027" gradientTransform="matrix(1.11 0 0 -1.11 434.8733 -592.6906)">
					<stop  offset="0" style="stop-color:#000000;stop-opacity:0.8"/>
					<stop  offset="0.4862" style="stop-color:#000000;stop-opacity:0.6059"/>
					<stop  offset="1" style="stop-color:#000000;stop-opacity:0"/>
				</linearGradient>
				<rect x="250.4" y="-407.1" class="st19" width="8.4" height="13.5"/>
				
					<linearGradient id="SVGID_17_" gradientUnits="userSpaceOnUse" x1="-158.7686" y1="-188.2334" x2="-161.0973" y2="-193.0329" gradientTransform="matrix(1.11 0 0 -1.11 434.8733 -592.6906)">
					<stop  offset="0" style="stop-color:#000000;stop-opacity:0.8"/>
					<stop  offset="0.4862" style="stop-color:#000000;stop-opacity:0.6059"/>
					<stop  offset="1" style="stop-color:#000000;stop-opacity:0"/>
				</linearGradient>
				<rect x="250.4" y="-382.1" class="st20" width="8.4" height="13.5"/>
				<path class="st3" d="M269.4-384.2l5.5,19.8h-8.4l-4.9-17.7h-11.2v-7.7h12.3c2.1,0,3.9-1.7,3.9-3.9v-9.6c0-2.1-1.7-3.9-3.9-3.9
					h-12.3v-7.7h12.3c6.8,0,12.3,5.5,12.3,12.3v8.2C274.9-390.1,272.7-386.4,269.4-384.2z"/>
			</g>
			
				<g id="path96867" transform="translate(0 366.45848) translate(608.7803394499999 45.175999999999995) scale(1.11) translate(-580.83256 50.4)">
				<path class="st3" d="M285.8-414.8h8.4v50.5h-8.4V-414.8z"/>
				
					<linearGradient id="SVGID_18_" gradientUnits="userSpaceOnUse" x1="-166.8813" y1="-182.9464" x2="-158.4721" y2="-182.9464" gradientTransform="matrix(1.11 0 0 -1.11 471.0366 -592.6906)">
					<stop  offset="0" style="stop-color:#000000;stop-opacity:0.4"/>
					<stop  offset="1" style="stop-color:#000000;stop-opacity:0.4"/>
				</linearGradient>
				<path class="st21" d="M285.8-414.8h8.4v50.5h-8.4V-414.8z"/>
				<path class="st3" d="M303-407.1h-26.2v-7.7H303V-407.1z"/>
				
					<linearGradient id="SVGID_19_" gradientUnits="userSpaceOnUse" x1="-159.4271" y1="-165.7031" x2="-161.7558" y2="-170.5027" gradientTransform="matrix(1.11 0 0 -1.11 471.0366 -592.6906)">
					<stop  offset="0" style="stop-color:#000000;stop-opacity:0.8"/>
					<stop  offset="0.4862" style="stop-color:#000000;stop-opacity:0.6059"/>
					<stop  offset="1" style="stop-color:#000000;stop-opacity:0"/>
				</linearGradient>
				<rect x="285.8" y="-407.1" class="st22" width="8.4" height="13.5"/>
			</g>
			
				<g id="path96869" transform="translate(0 366.45848) translate(646.05816875 45.175999999999995) scale(1.11) translate(-606.41619 50.4)">
				<path class="st3" d="M314.7-386.4h8.4v22h-8.4V-386.4z"/>
				
					<linearGradient id="SVGID_20_" gradientUnits="userSpaceOnUse" x1="-174.9625" y1="-195.748" x2="-166.5533" y2="-195.748" gradientTransform="matrix(1.11 0 0 -1.11 508.9078 -592.6906)">
					<stop  offset="0" style="stop-color:#000000;stop-opacity:0.4"/>
					<stop  offset="1" style="stop-color:#000000;stop-opacity:0.4"/>
				</linearGradient>
				<path class="st23" d="M314.7-386.4h8.4v22h-8.4V-386.4z"/>
				<path class="st3" d="M335.4-414.8l-12.3,28.4h-8.4l-12.3-28.4h8.4l8.1,18.7l8.1-18.7H335.4z"/>
				
					<linearGradient id="SVGID_21_" gradientUnits="userSpaceOnUse" x1="-167.5083" y1="-184.3617" x2="-169.8369" y2="-189.1613" gradientTransform="matrix(1.11 0 0 -1.11 508.9078 -592.6906)">
					<stop  offset="0" style="stop-color:#000000;stop-opacity:0.8"/>
					<stop  offset="0.4862" style="stop-color:#000000;stop-opacity:0.6059"/>
					<stop  offset="1" style="stop-color:#000000;stop-opacity:0"/>
				</linearGradient>
				<rect x="314.7" y="-386.4" class="st24" width="8.4" height="13.5"/>
			</g>
		</g>
		<g class="st1">
			<g class="st25">
				<path class="st26" d="M112.7-73.4l4.5,15.1c0.6,1.5,3.8,2.2,6,2.5c9.7,1.3,19.5,2.7,29.3,3.3c12.1,0.7,24.2,1.3,36.3,0.8
					c13.1-0.6,26.4-1.1,39.2-4.7c2.4-0.6,3.5-1.7,4.1-3.8l3.7-11.9l2.1-1.7c1.9-1,4.1-1.4,6.2-2.1"/>
				<path class="st26" d="M205.3-30.6c4.6,3.4,34-0.5,34-0.5l0,0c4.6-1.8,6.3-4.1,6.3-8.6c0-10.7,0-21.5,0-32.2
					c0-5.1-3.3-9.4-8.2-10.7c-3-0.8-2.4,0.3-4.5-2.1c-2.1-2.3-18.2-15-21.9-16.6c0,0,0.2,0.1,0,0c-1.1-0.6-3.7-1.1-5-1.1l-61-0.1
					c-5.7-0.1-10.6,1.5-14.8,5.1c-3.8,3.2-12.1,9.6-14.8,12.3l-4.2,2.6c-5.5,1.4-8.7,6.3-8.2,12.3c0.6,8,0.7,16,0.1,24
					c-1.1,13.9,2.1,13.4,9.4,14.7c7.9,1.4,15.9,2,23.9,2.5c1.8,0.2,4.7-0.7,7-1.5"/>
				<path class="st26" d="M228.8-82.7c-4.3-4.4-13.8-12.5-18.7-15.2c-0.6-0.3-1.3-0.5-2.8-0.5h-66c-1.5,0-3.2,0.5-4.5,1.2
					c-5,2.8-13.2,9.6-17.8,14.6l1.4,0.2l0,0l12.8,1.1l1.1-1.1c24.8,0,54.2-0.2,78.9-0.1l1.9,1.8L228.8-82.7"/>
				<polyline class="st26" points="104.1,-76.5 141.3,-64.3 205.3,-64.3 235.7,-72.4 				"/>
				<path class="st26" d="M243.6-32.7c0.6,5.1-1.4,7.4-6.2,7.4c-8.5,0-17.1,0-25.6,0c-4.9,0-6-0.2-6.5-4.9l-10.8-10.3
					c-13.5,0-26.9,0-40.4,0l-10.7,10.3c-0.1,2.9-2,4.9-5,4.9c-9.6,0.1-19.3,0.1-28.9,0c-3.2,0-5-3.1-4.5-7.4"/>
				<line class="st26" x1="143.5" y1="-30.3" x2="205.5" y2="-30.3"/>
				<path class="st26" d="M117.6-51.4"/>
				<polygon class="st26" points="113.4,-39.6 120.3,-35.3 137.5,-35.2 144.2,-41.1 141.7,-48.5 117.6,-51.2 				"/>
				<path class="st26" d="M115.4-84.7l-4.4-5.6l-11.8,0c-2.3,0.1-5.2,0-1.2,3.6c2.6,2.3,5.5,4.5,8.2,6.7"/>
				<polyline class="st26" points="133.5,-66.6 133.3,-62.1 116.6,-60.2 				"/>
				<polygon class="st26" points="234.8,-39.6 227.9,-35.3 210.7,-35.2 204,-41.1 206.5,-48.5 230.6,-51.2 				"/>
				<polyline class="st26" points="215.2,-66.6 215.4,-62.1 232,-60.2 				"/>
				<path class="st26" d="M233.7-84.7l4.4-5.6l11.8,0c2.3,0.1,5.2,0,1.2,3.6c-2.6,2.3-5.5,4.5-8.2,6.7"/>
			</g>
		</g>
	</g>
</g>
</svg>
