<?xml version="1.0" encoding="utf-8"?>
<!-- Generator: Adobe Illustrator 23.0.1, SVG Export Plug-In . SVG Version: 6.00 Build 0)  -->
<svg version="1.1"
	 id="svg96802" xmlns:cc="http://creativecommons.org/ns#" xmlns:dc="http://purl.org/dc/elements/1.1/" xmlns:rdf="http://www.w3.org/1999/02/22-rdf-syntax-ns#" xmlns:svg="http://www.w3.org/2000/svg"
	 xmlns="http://www.w3.org/2000/svg" xmlns:xlink="http://www.w3.org/1999/xlink" x="0px" y="0px" viewBox="0 0 171.8 94.5"
	 style="enable-background:new 0 0 171.8 94.5;" xml:space="preserve">
<style type="text/css">
	.st0{display:none;fill:#161619;}
	.st1{display:none;}
	.st2{display:inline;fill:#A6B2BB;}
	.st3{display:inline;}
	.st4{fill:#D9BC78;}
	.st5{opacity:0.64;fill:url(#SVGID_1_);enable-background:new    ;}
	.st6{opacity:0.64;fill:url(#SVGID_2_);enable-background:new    ;}
	.st7{opacity:0.64;fill:url(#SVGID_3_);enable-background:new    ;}
	.st8{opacity:0.64;fill:url(#SVGID_4_);enable-background:new    ;}
	.st9{opacity:0.64;fill:url(#SVGID_5_);enable-background:new    ;}
	.st10{opacity:0.64;fill:url(#SVGID_6_);enable-background:new    ;}
	.st11{opacity:0.64;fill:url(#SVGID_7_);enable-background:new    ;}
	.st12{opacity:0.64;fill:url(#SVGID_8_);enable-background:new    ;}
	.st13{opacity:0.64;fill:url(#SVGID_9_);enable-background:new    ;}
	.st14{opacity:0.64;fill:url(#SVGID_10_);enable-background:new    ;}
	.st15{opacity:0.64;fill:url(#SVGID_11_);enable-background:new    ;}
	.st16{opacity:0.64;fill:url(#SVGID_12_);enable-background:new    ;}
	.st17{opacity:0.64;fill:url(#SVGID_13_);enable-background:new    ;}
	.st18{opacity:0.64;fill:url(#SVGID_14_);enable-background:new    ;}
	.st19{opacity:0.64;fill:url(#SVGID_15_);enable-background:new    ;}
	.st20{opacity:0.64;fill:url(#SVGID_16_);enable-background:new    ;}
	.st21{opacity:0.64;fill:url(#SVGID_17_);enable-background:new    ;}
	.st22{opacity:0.64;fill:url(#SVGID_18_);enable-background:new    ;}
	.st23{opacity:0.64;fill:url(#SVGID_19_);enable-background:new    ;}
	.st24{opacity:0.64;fill:url(#SVGID_20_);enable-background:new    ;}
	.st25{opacity:0.64;fill:url(#SVGID_21_);enable-background:new    ;}
	.st26{fill:none;stroke:#AFAFAF;stroke-width:2;stroke-linecap:round;stroke-linejoin:round;stroke-miterlimit:10;}
</style>
<g id="logo-group">
	<g id="logo-center" transform="translate(0 0)">
		<rect x="-424.4" y="-293.9" class="st0" width="1024" height="768"/>
		<g id="slogan" transform="translate(0 0)" class="st1">
			<path id="path96810" class="st2" d="M-28.5,216.1v-21c1.6-0.2,3.9-0.2,6.8-0.2c2.3,0,4,0.4,4.9,1.3c0.9,0.9,1.4,2.5,1.4,4.9
				c0,2.4-0.5,4.1-1.4,5c-0.9,0.9-2.5,1.3-4.8,1.3c-2.2,0-4.1-0.1-5.7-0.2v8.9H-28.5z M-27.2,206.3h5.6c1.9,0,3.2-0.4,3.9-1.1
				c0.7-0.7,1.1-2.1,1.1-4.1c0-2-0.4-3.4-1.1-4.1c-0.7-0.7-2-1.1-3.9-1.1c-2.1,0-4,0-5.6,0.1V206.3z"/>
			<path id="path96812" class="st2" d="M-7.7,195.4h0.5c0.3,0,0.5,0.2,0.5,0.5v1.8c0,0.3-0.2,0.5-0.5,0.5h-0.5
				c-0.3,0-0.5-0.2-0.5-0.5v-1.8C-8.2,195.5-8,195.4-7.7,195.4z M-6.8,216.1H-8v-14.7h1.2V216.1z"/>
			<path id="path96814" class="st2" d="M7.6,215.2l0.1,0.9c-0.4,0.2-1.2,0.2-2.1,0.2c-1,0-1.8-0.3-2.4-0.9c-0.6-0.6-0.9-1.4-0.9-2.4
				v-7.8l-2.6,1.1v-0.9l2.6-1.1v-9.6h1.2v9.1l3.5-1.6v0.9l-3.5,1.5v8.1c0,1.5,0.8,2.3,2.3,2.3H7.6z"/>
			<path id="path96816" class="st2" d="M22.2,209.4h-7.8c0.1,2.2,0.5,3.8,1.4,4.7c0.9,0.9,2.2,1.3,4.1,1.3c1.7,0,3.4-0.1,5-0.4
				l0.2,0.9c-1.2,0.4-3,0.6-5.3,0.6c-2.4,0-4.1-0.6-5.1-1.8c-1-1.2-1.6-3.2-1.6-6s0.5-4.8,1.5-5.9c1-1.2,2.6-1.7,5-1.7
				c3.9,0,5.8,1.4,5.9,4.3c0,1.3-0.2,2.3-0.7,3C24.2,209.1,23.3,209.4,22.2,209.4z M14.4,208.4H22c1.5,0,2.2-1,2.2-2.9
				c0-1.1-0.4-2-1.2-2.5c-0.7-0.5-1.9-0.8-3.4-0.8c-1.9,0-3.2,0.5-4,1.4S14.4,206.1,14.4,208.4L14.4,208.4z"/>
			<path id="path96818" class="st2" d="M41.7,195.2l-5,4.1l-0.5-0.6l4.7-4.4L41.7,195.2z M39.8,209.6l-4.8-0.7
				c-1.1-0.2-1.9-0.5-2.4-1.1c-0.5-0.6-0.8-1.5-0.8-2.7c0-1.7,0.4-2.8,1.2-3.3c0.8-0.5,2.2-0.7,4.3-0.7c2.2,0,4.1,0.2,5.8,0.4
				l-0.1,0.9c-2.3-0.1-4.2-0.2-5.6-0.2c-1.7,0-2.9,0.1-3.5,0.4c-0.6,0.3-0.9,1.1-0.9,2.4c0,1,0.2,1.6,0.6,2s1,0.7,1.8,0.8l4.8,0.7
				c1.1,0.2,1.9,0.6,2.5,1.2c0.6,0.6,0.9,1.5,0.9,2.6c0,1.7-0.4,2.8-1.3,3.3c-0.9,0.5-2.4,0.8-4.6,0.8c-1.9,0-3.8-0.1-5.4-0.4
				l0.1-0.9c1.7,0.1,3.5,0.2,5.2,0.2c1.9,0,3.2-0.2,3.8-0.6c0.7-0.4,1-1.2,1-2.5c0-0.9-0.2-1.5-0.7-1.9
				C41.2,210,40.6,209.7,39.8,209.6L39.8,209.6z"/>
			<path id="path96820" class="st2" d="M49,195.9l-0.2-0.9c0.1,0,0.4-0.1,0.9-0.2c0.5-0.1,0.8-0.1,0.9-0.2c0.1,0,0.4-0.1,0.8-0.1
				c0.4-0.1,0.7-0.1,1-0.1c0.3,0,0.7,0,1.2-0.1c0.5,0,1,0,1.6,0c4,0,6,1.6,6,4.7c0,0.9-0.2,1.6-0.6,2.4c-0.4,0.7-0.9,1.3-1.4,1.9
				c-0.5,0.5-1.1,1.1-1.7,1.7c-0.5,0.6-1,1.3-1.4,2.1c-0.4,0.8-0.6,1.7-0.6,2.7h-1.1c0-1.1,0.2-2,0.5-2.9c0.4-0.9,0.9-1.6,1.4-2.2
				c0.5-0.6,1.1-1.1,1.6-1.7c0.5-0.5,1-1.1,1.4-1.7c0.4-0.6,0.6-1.3,0.6-2.1c0-1.3-0.4-2.2-1.2-2.9c-0.8-0.6-2-0.9-3.7-0.9
				C53.2,195.5,51.2,195.7,49,195.9L49,195.9z M54.7,213.3h0.4c0.3,0,0.5,0.2,0.5,0.5v1.8c0,0.3-0.2,0.5-0.5,0.5h-0.4
				c-0.3,0-0.5-0.2-0.5-0.5v-1.8C54.2,213.4,54.4,213.3,54.7,213.3z"/>
			<path id="path96822" class="st2" d="M90.6,195.1v20.4c0,0.4-0.2,0.6-0.6,0.6h-1.6c-0.3,0-0.6-0.2-0.7-0.5l-9.1-17.1
				c-0.6-1.1-0.9-1.8-1.1-2.2h-0.7c0,0.5,0,1.3,0,2.3v17.6h-1.2v-20.4c0-0.4,0.2-0.6,0.6-0.6h1.5c0.3,0,0.6,0.2,0.7,0.5l8.8,16.8
				c0.2,0.3,0.6,1.1,1.4,2.6h0.8c0-0.3,0-0.8,0-1.4c0-0.6,0-1.1,0-1.4v-17H90.6z"/>
			<path id="path96824" class="st2" d="M99.7,195.4h0.5c0.3,0,0.5,0.2,0.5,0.5v1.8c0,0.3-0.2,0.5-0.5,0.5h-0.5
				c-0.3,0-0.5-0.2-0.5-0.5v-1.8C99.2,195.5,99.4,195.4,99.7,195.4z M100.5,216.1h-1.2v-14.7h1.2V216.1z"/>
			<path id="path96826" class="st2" d="M117.3,209.4h-7.8c0.1,2.2,0.5,3.8,1.4,4.7c0.9,0.9,2.2,1.3,4.1,1.3c1.7,0,3.4-0.1,5-0.4
				l0.2,0.9c-1.2,0.4-3,0.6-5.3,0.6c-2.4,0-4.1-0.6-5.1-1.8c-1-1.2-1.6-3.2-1.6-6s0.5-4.8,1.5-5.9c1-1.2,2.6-1.7,5-1.7
				c3.9,0,5.8,1.4,5.9,4.3c0,1.3-0.2,2.3-0.7,3C119.3,209.1,118.4,209.4,117.3,209.4z M109.5,208.4h7.6c1.5,0,2.2-1,2.2-2.9
				c0-1.1-0.4-2-1.2-2.5c-0.7-0.5-1.9-0.8-3.4-0.8c-1.9,0-3.2,0.5-4,1.4S109.5,206.1,109.5,208.4L109.5,208.4z"/>
			<path id="path96828" class="st2" d="M135.3,195.4h0.5c0.3,0,0.5,0.2,0.5,0.5v1.8c0,0.3-0.2,0.5-0.5,0.5h-0.5
				c-0.3,0-0.5-0.2-0.5-0.5v-1.8C134.8,195.5,135,195.4,135.3,195.4z M136.2,201.5v15.8c0,2-0.7,3.7-2.2,5.2l-0.7-0.5
				c1.1-1.4,1.7-3,1.7-4.7v-15.8L136.2,201.5z"/>
			<path id="path96830" class="st2" d="M153,209.4h-7.8c0.1,2.2,0.5,3.8,1.4,4.7c0.9,0.9,2.2,1.3,4.1,1.3c1.7,0,3.4-0.1,5-0.4
				l0.2,0.9c-1.2,0.4-3,0.6-5.3,0.6c-2.4,0-4.1-0.6-5.1-1.8c-1-1.2-1.6-3.2-1.6-6s0.5-4.8,1.5-5.9c1-1.2,2.6-1.7,5-1.7
				c3.9,0,5.8,1.4,5.9,4.3c0,1.3-0.2,2.3-0.7,3C155,209.1,154.1,209.4,153,209.4z M145.2,208.4h7.6c1.5,0,2.2-1,2.2-2.9
				c0-1.1-0.4-2-1.2-2.5c-0.7-0.5-1.9-0.8-3.4-0.8c-1.9,0-3.2,0.5-4,1.4C145.6,204.5,145.2,206.1,145.2,208.4L145.2,208.4z"/>
			<path id="path96832" class="st2" d="M175.2,194.8v21.3h-0.9l-0.2-2.4c-2.1,1.9-4.1,2.8-6,2.8c-1.9,0-3.2-0.6-4-1.8
				c-0.8-1.2-1.2-3.2-1.2-5.9c0-2.8,0.4-4.8,1.2-5.9c0.8-1.2,2.2-1.8,4.1-1.8c1.8,0,3.8,0.5,5.9,1.5c-0.1-0.5-0.1-1.5-0.1-2.9v-4.9
				H175.2z M174,212.7v-9.2c-2.3-0.9-4.2-1.3-5.6-1.3c-1.6,0-2.7,0.5-3.3,1.5c-0.6,1-1,2.7-1,5.1c0,2.4,0.3,4.1,1,5.1
				c0.6,1,1.7,1.5,3.3,1.5c0.9,0,1.7-0.2,2.6-0.6C171.8,214.4,172.8,213.7,174,212.7z"/>
			<path id="path96834" class="st2" d="M187.4,199.3l-0.5-0.6l4.7-4.4l0.8,0.9L187.4,199.3z M194.5,215.1v1h-12.1v-1l10.5-12.6
				h-10.5v-1.1h11.9v1.1l-10.6,12.6H194.5z"/>
			<path id="path96836" class="st2" d="M203.5,205.1l-0.1,4.8h-1l-0.1-4.8V195h1.2V205.1z M202.7,213.3h0.4c0.3,0,0.5,0.2,0.5,0.5
				v1.8c0,0.3-0.2,0.5-0.5,0.5h-0.4c-0.3,0-0.5-0.2-0.5-0.5v-1.8C202.2,213.4,202.4,213.3,202.7,213.3z"/>
			<path id="path96838" class="st2" d="M27.5,244.8v1.1h-14v-1.1L25.9,226H13.6v-1.1h13.7v1.1l-12.4,18.8H27.5z"/>
			<path id="path96840" class="st2" d="M34.5,232.4l-0.1-0.9c3.1-0.4,5.4-0.6,7-0.6c2.9,0,4.3,1.4,4.3,4.3v10.8h-0.9l-0.2-2.7
				c-0.7,0.7-1.8,1.4-3,2c-1.3,0.6-2.5,0.9-3.8,0.9c-1.3,0-2.2-0.3-2.9-1c-0.7-0.7-1-1.6-1-2.8v-1.8c0-1.1,0.3-2,0.9-2.6
				c0.6-0.6,1.6-0.9,2.7-0.9h7.1v-1.9c0-1-0.2-1.8-0.7-2.3c-0.5-0.5-1.3-0.8-2.5-0.8C39.4,232,37.2,232.1,34.5,232.4L34.5,232.4z
				 M35,240.6v1.6c0,1.8,1,2.7,2.9,2.8c1,0,2.1-0.2,3.4-0.8c1.3-0.5,2.3-1.2,3.2-2V238l-6.9,0.1C35.8,238.1,35,238.9,35,240.6
				L35,240.6z"/>
			<path id="path96842" class="st2" d="M65.5,224.6v21.3h-0.9l-0.2-2.4c-2.1,1.9-4.1,2.8-6,2.8s-3.2-0.6-4-1.8
				c-0.8-1.2-1.2-3.2-1.2-5.9c0-2.8,0.4-4.8,1.2-5.9c0.8-1.2,2.2-1.8,4.1-1.8c1.8,0,3.8,0.5,5.9,1.5c-0.1-0.5-0.1-1.5-0.1-2.9v-4.9
				H65.5z M64.3,242.5v-9.2c-2.3-0.9-4.2-1.3-5.6-1.3c-1.6,0-2.7,0.5-3.3,1.5c-0.6,1-1,2.7-1,5.1c0,2.4,0.3,4.1,1,5.1
				c0.6,1,1.7,1.5,3.3,1.5c0.9,0,1.7-0.2,2.6-0.6C62.1,244.2,63.1,243.5,64.3,242.5z"/>
			<path id="path96844" class="st2" d="M84.8,244.9v1H72.7v-1l10.5-12.6H72.8v-1.1h11.9v1.1l-10.6,12.6H84.8z"/>
			<path id="path96846" class="st2" d="M113.1,231.3l-4.9,14.3c-0.1,0.3-0.3,0.4-0.5,0.4h-1.2c-0.3,0-0.5-0.1-0.6-0.4l-3.4-11.1
				c-0.3-1-0.5-1.7-0.6-2.2h-0.3l-0.7,2.2l-3.4,11.1c-0.1,0.3-0.3,0.4-0.6,0.4h-1.2c-0.3,0-0.4-0.1-0.5-0.4l-4.9-14.3h1.3l3.9,11.7
				c0.1,0.3,0.2,0.6,0.4,1.2c0.2,0.5,0.3,0.8,0.3,0.9h0.4l0.6-2.1l3.5-11.2c0.1-0.3,0.2-0.4,0.5-0.4h1.1c0.3,0,0.5,0.1,0.5,0.4
				l3.5,11.2l0.6,2.1h0.4c0.1-0.2,0.2-0.6,0.3-1c0.1-0.5,0.3-0.8,0.3-1l3.9-11.7L113.1,231.3z"/>
			<path id="path96848" class="st2" d="M120.3,232.6c1-1.2,2.7-1.7,5.1-1.7c2.4,0,4.1,0.6,5,1.7c1,1.2,1.5,3.1,1.5,6
				c0,2.8-0.5,4.8-1.5,6c-1,1.2-2.7,1.7-5.1,1.7c-2.4,0-4.1-0.6-5.1-1.7c-1-1.2-1.5-3.1-1.5-6C118.8,235.8,119.3,233.8,120.3,232.6z
				 M129.5,233.4c-0.8-1-2.1-1.4-4.1-1.4c-2,0-3.3,0.5-4.1,1.4c-0.8,1-1.2,2.7-1.2,5.2c0,2.5,0.4,4.2,1.2,5.2c0.8,1,2.1,1.4,4.1,1.4
				c2,0,3.3-0.5,4.1-1.4c0.8-1,1.2-2.7,1.2-5.2C130.6,236.1,130.2,234.4,129.5,233.4z"/>
			<path id="path96850" class="st2" d="M144.7,229.1l-0.5-0.6l4.7-4.4l0.8,0.9L144.7,229.1z M140.5,231.3l0.1,2.6
				c2.5-2,4.9-2.9,7-2.9c2.6,0,4,1.3,4,4v11h-1.2v-10.8c0-1.1-0.2-1.9-0.7-2.4c-0.5-0.5-1.2-0.8-2.3-0.8c-1,0-2,0.2-2.9,0.7
				c-1,0.4-2.2,1.1-3.6,2.1v11.1h-1.2v-14.7H140.5z"/>
			<path id="path96852" class="st2" d="M161.5,234.9l-0.1,4.8h-1l-0.1-4.8v-10.1h1.2V234.9z M160.7,243.1h0.4c0.3,0,0.5,0.2,0.5,0.5
				v1.8c0,0.3-0.2,0.5-0.5,0.5h-0.4c-0.3,0-0.5-0.2-0.5-0.5v-1.8C160.2,243.2,160.4,243.1,160.7,243.1L160.7,243.1z"/>
		</g>
		<g id="title" transform="translate(0 0)" class="st1">
			
				<g id="path96855" transform="translate(0 366.45848) translate(341.2585512499999 44.376799999999996) scale(1.11) translate(-387.82194 51.12)" class="st3">
				<path class="st4" d="M17.8-271.7H6.4c0-0.1-0.1-0.1-0.1-0.2c-0.5-1.4-0.8-2.8-0.8-4.4v-27.3c0-1.6,0.3-3.1,0.9-4.6h11.4
					c-2.1,0-3.9,1.7-3.9,3.9v28.7c0,1.7,1.1,3.2,2.7,3.7C17-271.8,17.4-271.7,17.8-271.7z"/>
				
					<linearGradient id="SVGID_1_" gradientUnits="userSpaceOnUse" x1="-204.5214" y1="-83.2594" x2="-192.258" y2="-83.2594" gradientTransform="matrix(1.11 0 0 -1.11 232.5362 -382.3701)">
					<stop  offset="0" style="stop-color:#000000;stop-opacity:0.4"/>
					<stop  offset="1" style="stop-color:#000000;stop-opacity:0.4"/>
				</linearGradient>
				<path class="st5" d="M17.8-271.7H6.4c0-0.1-0.1-0.1-0.1-0.2c-0.5-1.4-0.8-2.8-0.8-4.4v-27.3c0-1.6,0.3-3.1,0.9-4.6h11.4
					c-2.1,0-3.9,1.7-3.9,3.9v28.7c0,1.7,1.1,3.2,2.7,3.7C17-271.8,17.4-271.7,17.8-271.7z"/>
				
					<linearGradient id="SVGID_2_" gradientUnits="userSpaceOnUse" x1="-191.333" y1="-67.674" x2="-193.9074" y2="-72.7571" gradientTransform="matrix(1.11 0 0 -1.11 232.5362 -382.3701)">
					<stop  offset="0" style="stop-color:#000000;stop-opacity:0.8"/>
					<stop  offset="0.5047" style="stop-color:#000000;stop-opacity:0.6059"/>
					<stop  offset="1" style="stop-color:#000000;stop-opacity:0"/>
				</linearGradient>
				<path class="st6" d="M5.5-303.6v27.3c0,1.5,0.3,3,0.8,4.4h10.3c-1.6-0.5-2.7-2-2.7-3.7v-28.7c0-2.1,1.7-3.9,3.9-3.9H6.3
					C5.8-306.8,5.5-305.2,5.5-303.6z"/>
				<path class="st4" d="M21.6-300.3v-4c0-2.1-1.7-3.9-3.9-3.9H6.4c1.8-4.5,6.2-7.7,11.4-7.7c6.8,0,12.3,5.5,12.3,12.3v3.3
					L21.6-300.3L21.6-300.3z M21.6-281.4v5.8c0,2.1-1.7,3.9-3.9,3.9H6.4c1.8,4.5,6.2,7.7,11.4,7.7c6.8,0,12.3-5.5,12.3-12.3v-5.1
					C30-281.4,21.6-281.4,21.6-281.4z"/>
			</g>
			
				<g id="path96857" transform="translate(0 366.45848) translate(379.57658374999994 45.175999999999995) scale(1.11) translate(-414.34269 50.4)" class="st3">
				<path class="st4" d="M33.7-272.4h8.4l-1.8,7.7H32L33.7-272.4z M35.5-280.1h8.4l8-35h-8.4L35.5-280.1z"/>
				
					<linearGradient id="SVGID_3_" gradientUnits="userSpaceOnUse" x1="-215.6413" y1="-83.2594" x2="-195.7395" y2="-83.2594" gradientTransform="matrix(1.11 0 0 -1.11 271.3414 -382.3509)">
					<stop  offset="0" style="stop-color:#000000;stop-opacity:0.4"/>
					<stop  offset="1" style="stop-color:#000000;stop-opacity:0.4"/>
				</linearGradient>
				<path class="st7" d="M33.7-272.4h8.4l-1.8,7.7H32L33.7-272.4z M35.5-280.1h8.4l8-35h-8.4L35.5-280.1z"/>
				
					<linearGradient id="SVGID_4_" gradientUnits="userSpaceOnUse" x1="-208.638" y1="-97.0761" x2="-210.5913" y2="-101.4577" gradientTransform="matrix(1.11 0 0 -1.11 271.3414 -382.3509)">
					<stop  offset="0" style="stop-color:#000000;stop-opacity:0.8"/>
					<stop  offset="0.4862" style="stop-color:#000000;stop-opacity:0.6059"/>
					<stop  offset="1" style="stop-color:#000000;stop-opacity:0"/>
				</linearGradient>
				<polygon class="st8" points="32,-264.7 40.4,-264.7 42.1,-272.4 33.7,-272.4 				"/>
				
					<linearGradient id="SVGID_5_" gradientUnits="userSpaceOnUse" x1="-198.5959" y1="-74.8559" x2="-203.0587" y2="-75.8578" gradientTransform="matrix(1.11 0 0 -1.11 271.3414 -382.3509)">
					<stop  offset="0" style="stop-color:#000000;stop-opacity:0.8"/>
					<stop  offset="0.4862" style="stop-color:#000000;stop-opacity:0.6059"/>
					<stop  offset="1" style="stop-color:#000000;stop-opacity:0"/>
				</linearGradient>
				<polygon class="st9" points="43.5,-315.2 51.9,-315.2 43.9,-280.1 35.5,-280.1 				"/>
				<path class="st4" d="M55-264.7l-1.8-7.7H42.1h-8.4l1.8-7.7h8.4h7.6l-8-35h8.4l11.5,50.5C63.4-264.7,55-264.7,55-264.7z"/>
			</g>
			
				<g id="path96859" transform="translate(0 366.45848) translate(427.16657945 45.175999999999995) scale(1.11) translate(-449.21656 50.4)" class="st3">
				<path class="st4" d="M66.9-315.2h8.4v50.5h-8.4V-315.2z"/>
				
					<linearGradient id="SVGID_6_" gradientUnits="userSpaceOnUse" x1="-220.5479" y1="-83.2594" x2="-212.1387" y2="-83.2594" gradientTransform="matrix(1.11 0 0 -1.11 311.6616 -382.3509)">
					<stop  offset="0" style="stop-color:#000000;stop-opacity:0.4"/>
					<stop  offset="1" style="stop-color:#000000;stop-opacity:0.4"/>
				</linearGradient>
				<path class="st10" d="M66.9-315.2h8.4v50.5h-8.4V-315.2z"/>
				
					<linearGradient id="SVGID_7_" gradientUnits="userSpaceOnUse" x1="-213.0937" y1="-66.0161" x2="-215.4223" y2="-70.8156" gradientTransform="matrix(1.11 0 0 -1.11 311.6616 -382.3509)">
					<stop  offset="0" style="stop-color:#000000;stop-opacity:0.8"/>
					<stop  offset="0.4862" style="stop-color:#000000;stop-opacity:0.6059"/>
					<stop  offset="1" style="stop-color:#000000;stop-opacity:0"/>
				</linearGradient>
				<rect x="66.9" y="-307.5" class="st11" width="8.4" height="13.5"/>
				
					<linearGradient id="SVGID_8_" gradientUnits="userSpaceOnUse" x1="-213.0937" y1="-88.5463" x2="-215.4223" y2="-93.3459" gradientTransform="matrix(1.11 0 0 -1.11 311.6616 -382.3509)">
					<stop  offset="0" style="stop-color:#000000;stop-opacity:0.8"/>
					<stop  offset="0.4862" style="stop-color:#000000;stop-opacity:0.6059"/>
					<stop  offset="1" style="stop-color:#000000;stop-opacity:0"/>
				</linearGradient>
				<rect x="66.9" y="-282.4" class="st12" width="8.4" height="13.5"/>
				<path class="st4" d="M85.9-284.5l5.5,19.8H83L78-282.4H66.9v-7.7h12.3c2.1,0,3.9-1.7,3.9-3.9v-9.6c0-2.1-1.7-3.9-3.9-3.9H66.9
					v-7.7h12.3c6.8,0,12.3,5.5,12.3,12.3v8.2C91.4-290.4,89.2-286.7,85.9-284.5z"/>
			</g>
			
				<g id="path96861" transform="translate(0 366.45848) translate(488.33799124999996 45.175999999999995) scale(1.11) translate(-496.32594 50.4)" class="st3">
				<path class="st4" d="M114-315.2h8.4v50.5H114V-315.2z"/>
				
					<linearGradient id="SVGID_9_" gradientUnits="userSpaceOnUse" x1="-228.5478" y1="-83.2594" x2="-220.1386" y2="-83.2594" gradientTransform="matrix(1.11 0 0 -1.11 367.6508 -382.3509)">
					<stop  offset="0" style="stop-color:#000000;stop-opacity:0.4"/>
					<stop  offset="1" style="stop-color:#000000;stop-opacity:0.4"/>
				</linearGradient>
				<path class="st13" d="M114-315.2h8.4v50.5H114V-315.2z"/>
				<path class="st4" d="M126.2-315.2c6.8,0,12.3,5.5,12.3,12.3v8.2c0,6.8-5.5,12.3-12.3,12.3H114v-7.7h12.3c2.1,0,3.9-1.7,3.9-3.9
					v-9.6c0-2.1-1.7-3.9-3.9-3.9H114v-7.7H126.2L126.2-315.2z"/>
				
					<linearGradient id="SVGID_10_" gradientUnits="userSpaceOnUse" x1="-221.0936" y1="-66.0161" x2="-223.4223" y2="-70.8156" gradientTransform="matrix(1.11 0 0 -1.11 367.6508 -382.3509)">
					<stop  offset="0" style="stop-color:#000000;stop-opacity:0.8"/>
					<stop  offset="0.4862" style="stop-color:#000000;stop-opacity:0.6059"/>
					<stop  offset="1" style="stop-color:#000000;stop-opacity:0"/>
				</linearGradient>
				<rect x="114" y="-307.5" class="st14" width="8.4" height="13.5"/>
				
					<linearGradient id="SVGID_11_" gradientUnits="userSpaceOnUse" x1="-221.0936" y1="-88.5463" x2="-223.4223" y2="-93.3459" gradientTransform="matrix(1.11 0 0 -1.11 367.6508 -382.3509)">
					<stop  offset="0" style="stop-color:#000000;stop-opacity:0.8"/>
					<stop  offset="0.4862" style="stop-color:#000000;stop-opacity:0.6059"/>
					<stop  offset="1" style="stop-color:#000000;stop-opacity:0"/>
				</linearGradient>
				<rect x="114" y="-282.4" class="st15" width="8.4" height="13.5"/>
			</g>
			
				<g id="path96863" transform="translate(0 366.45848) translate(522.97470875 45.175999999999995) scale(1.11) translate(-519.53019 50.4)" class="st3">
				<path class="st4" d="M138.9-272.4h8.4l-1.8,7.7h-8.4L138.9-272.4z M140.7-280.1h8.4l8-35h-8.4L140.7-280.1z"/>
				
					<linearGradient id="SVGID_12_" gradientUnits="userSpaceOnUse" x1="-239.6413" y1="-83.2594" x2="-219.7396" y2="-83.2594" gradientTransform="matrix(1.11 0 0 -1.11 403.1689 -382.3509)">
					<stop  offset="0" style="stop-color:#000000;stop-opacity:0.4"/>
					<stop  offset="1" style="stop-color:#000000;stop-opacity:0.4"/>
				</linearGradient>
				<path class="st16" d="M138.9-272.4h8.4l-1.8,7.7h-8.4L138.9-272.4z M140.7-280.1h8.4l8-35h-8.4L140.7-280.1z"/>
				
					<linearGradient id="SVGID_13_" gradientUnits="userSpaceOnUse" x1="-232.638" y1="-97.0761" x2="-234.5913" y2="-101.4577" gradientTransform="matrix(1.11 0 0 -1.11 403.1689 -382.3509)">
					<stop  offset="0" style="stop-color:#000000;stop-opacity:0.8"/>
					<stop  offset="0.4862" style="stop-color:#000000;stop-opacity:0.6059"/>
					<stop  offset="1" style="stop-color:#000000;stop-opacity:0"/>
				</linearGradient>
				<polygon class="st17" points="137.2,-264.7 145.6,-264.7 147.3,-272.4 138.9,-272.4 				"/>
				
					<linearGradient id="SVGID_14_" gradientUnits="userSpaceOnUse" x1="-222.5959" y1="-74.8559" x2="-227.0587" y2="-75.8578" gradientTransform="matrix(1.11 0 0 -1.11 403.1689 -382.3509)">
					<stop  offset="0" style="stop-color:#000000;stop-opacity:0.8"/>
					<stop  offset="0.4862" style="stop-color:#000000;stop-opacity:0.6059"/>
					<stop  offset="1" style="stop-color:#000000;stop-opacity:0"/>
				</linearGradient>
				<polygon class="st18" points="148.7,-315.2 157.1,-315.2 149.1,-280.1 140.7,-280.1 				"/>
				<path class="st4" d="M160.2-264.7l-1.8-7.7h-11.1h-8.4l1.8-7.7h8.4h7.6l-8-35h8.4l11.5,50.5
					C168.6-264.7,160.2-264.7,160.2-264.7z"/>
			</g>
			
				<g id="path96865" transform="translate(0 366.45848) translate(570.5647044499999 45.175999999999995) scale(1.11) translate(-554.40406 50.4)" class="st3">
				<path class="st4" d="M172-315.2h8.4v50.5H172V-315.2z"/>
				
					<linearGradient id="SVGID_15_" gradientUnits="userSpaceOnUse" x1="-244.5479" y1="-83.2594" x2="-236.1387" y2="-83.2594" gradientTransform="matrix(1.11 0 0 -1.11 443.4891 -382.3509)">
					<stop  offset="0" style="stop-color:#000000;stop-opacity:0.4"/>
					<stop  offset="1" style="stop-color:#000000;stop-opacity:0.4"/>
				</linearGradient>
				<path class="st19" d="M172-315.2h8.4v50.5H172V-315.2z"/>
				
					<linearGradient id="SVGID_16_" gradientUnits="userSpaceOnUse" x1="-237.0937" y1="-66.0161" x2="-239.4223" y2="-70.8156" gradientTransform="matrix(1.11 0 0 -1.11 443.4891 -382.3509)">
					<stop  offset="0" style="stop-color:#000000;stop-opacity:0.8"/>
					<stop  offset="0.4862" style="stop-color:#000000;stop-opacity:0.6059"/>
					<stop  offset="1" style="stop-color:#000000;stop-opacity:0"/>
				</linearGradient>
				<rect x="172" y="-307.5" class="st20" width="8.4" height="13.5"/>
				
					<linearGradient id="SVGID_17_" gradientUnits="userSpaceOnUse" x1="-237.0937" y1="-88.5463" x2="-239.4223" y2="-93.3459" gradientTransform="matrix(1.11 0 0 -1.11 443.4891 -382.3509)">
					<stop  offset="0" style="stop-color:#000000;stop-opacity:0.8"/>
					<stop  offset="0.4862" style="stop-color:#000000;stop-opacity:0.6059"/>
					<stop  offset="1" style="stop-color:#000000;stop-opacity:0"/>
				</linearGradient>
				<rect x="172" y="-282.4" class="st21" width="8.4" height="13.5"/>
				<path class="st4" d="M191.1-284.5l5.5,19.8h-8.4l-4.9-17.7H172v-7.7h12.3c2.1,0,3.9-1.7,3.9-3.9v-9.6c0-2.1-1.7-3.9-3.9-3.9H172
					v-7.7h12.3c6.8,0,12.3,5.5,12.3,12.3v8.2C196.6-290.4,194.4-286.7,191.1-284.5z"/>
			</g>
			
				<g id="path96867" transform="translate(0 366.45848) translate(608.7803394499999 45.175999999999995) scale(1.11) translate(-580.83256 50.4)" class="st3">
				<path class="st4" d="M207.5-315.2h8.4v50.5h-8.4V-315.2z"/>
				
					<linearGradient id="SVGID_18_" gradientUnits="userSpaceOnUse" x1="-245.2064" y1="-83.2594" x2="-236.7972" y2="-83.2594" gradientTransform="matrix(1.11 0 0 -1.11 479.6524 -382.3509)">
					<stop  offset="0" style="stop-color:#000000;stop-opacity:0.4"/>
					<stop  offset="1" style="stop-color:#000000;stop-opacity:0.4"/>
				</linearGradient>
				<path class="st22" d="M207.5-315.2h8.4v50.5h-8.4V-315.2z"/>
				<path class="st4" d="M224.7-307.5h-26.2v-7.7h26.2V-307.5z"/>
				
					<linearGradient id="SVGID_19_" gradientUnits="userSpaceOnUse" x1="-237.7522" y1="-66.0161" x2="-240.0808" y2="-70.8156" gradientTransform="matrix(1.11 0 0 -1.11 479.6524 -382.3509)">
					<stop  offset="0" style="stop-color:#000000;stop-opacity:0.8"/>
					<stop  offset="0.4862" style="stop-color:#000000;stop-opacity:0.6059"/>
					<stop  offset="1" style="stop-color:#000000;stop-opacity:0"/>
				</linearGradient>
				<rect x="207.5" y="-307.5" class="st23" width="8.4" height="13.5"/>
			</g>
			
				<g id="path96869" transform="translate(0 366.45848) translate(646.05816875 45.175999999999995) scale(1.11) translate(-606.41619 50.4)" class="st3">
				<path class="st4" d="M236.4-286.7h8.4v22h-8.4V-286.7z"/>
				
					<linearGradient id="SVGID_20_" gradientUnits="userSpaceOnUse" x1="-253.2875" y1="-96.061" x2="-244.8783" y2="-96.061" gradientTransform="matrix(1.11 0 0 -1.11 517.5236 -382.3509)">
					<stop  offset="0" style="stop-color:#000000;stop-opacity:0.4"/>
					<stop  offset="1" style="stop-color:#000000;stop-opacity:0.4"/>
				</linearGradient>
				<path class="st24" d="M236.4-286.7h8.4v22h-8.4V-286.7z"/>
				<path class="st4" d="M257.1-315.2l-12.3,28.4h-8.4l-12.3-28.4h8.4l8.1,18.7l8.1-18.7H257.1z"/>
				
					<linearGradient id="SVGID_21_" gradientUnits="userSpaceOnUse" x1="-245.8333" y1="-84.6747" x2="-248.162" y2="-89.4742" gradientTransform="matrix(1.11 0 0 -1.11 517.5236 -382.3509)">
					<stop  offset="0" style="stop-color:#000000;stop-opacity:0.8"/>
					<stop  offset="0.4862" style="stop-color:#000000;stop-opacity:0.6059"/>
					<stop  offset="1" style="stop-color:#000000;stop-opacity:0"/>
				</linearGradient>
				<rect x="236.4" y="-286.7" class="st25" width="8.4" height="13.5"/>
			</g>
		</g>
		<g>
			<g>
				<path class="st26" d="M25.8,37.2l4.5,15.1c0.6,1.5,3.8,2.2,6,2.5c9.7,1.3,19.5,2.7,29.3,3.3c12.1,0.7,24.2,1.3,36.3,0.8
					c13.1-0.6,26.4-1.1,39.2-4.7c2.4-0.6,3.5-1.7,4.1-3.8l3.7-11.9l2.1-1.7c1.9-1,4.1-1.4,6.2-2.1"/>
				<path class="st26" d="M118.4,80.1c4.6,3.4,34-0.5,34-0.5l0,0c4.6-1.8,6.3-4.1,6.3-8.6c0-10.7,0-21.5,0-32.2
					c0-5.1-3.3-9.4-8.2-10.7c-3-0.8-2.4,0.3-4.5-2.1c-2.1-2.3-18.2-15-21.9-16.6c0,0,0.2,0.1,0,0c-1.1-0.6-3.7-1.1-5-1.1l-61-0.1
					c-5.7-0.1-10.6,1.5-14.8,5.1c-3.8,3.2-12.1,9.6-14.8,12.3l-4.2,2.6c-5.5,1.4-8.7,6.3-8.2,12.3c0.6,8,0.7,16,0.1,24
					c-1.1,13.9,2.1,13.4,9.4,14.7c7.9,1.4,15.9,2,23.9,2.5c1.8,0.2,4.7-0.7,7-1.5"/>
				<path class="st26" d="M141.8,28c-4.3-4.4-13.8-12.5-18.7-15.2c-0.6-0.3-1.3-0.5-2.8-0.5h-66c-1.5,0-3.2,0.5-4.5,1.2
					c-5,2.8-13.2,9.6-17.8,14.6l1.4,0.2l0,0l12.8,1.1l1.1-1.1c24.8,0,54.2-0.2,78.9-0.1l1.9,1.8L141.8,28"/>
				<polyline class="st26" points="17.1,34.1 54.4,46.3 118.4,46.3 148.8,38.2 				"/>
				<path class="st26" d="M156.7,78c0.6,5.1-1.4,7.4-6.2,7.4c-8.5,0-17.1,0-25.6,0c-4.9,0-6-0.2-6.5-4.9l-10.8-10.3
					c-13.5,0-27,0-40.4,0L56.4,80.5c-0.1,2.9-2,4.9-5,4.9c-9.6,0.1-19.3,0.1-28.9,0c-3.2,0-5-3.1-4.5-7.4"/>
				<line class="st26" x1="56.6" y1="80.3" x2="118.6" y2="80.3"/>
				<path class="st26" d="M30.7,59.3"/>
				<polygon class="st26" points="26.5,71 33.3,75.3 50.6,75.5 57.3,69.5 54.8,62.1 30.7,59.4 				"/>
				<path class="st26" d="M28.4,26l-4.4-5.6l-11.8,0c-2.3,0.1-5.2,0-1.2,3.6c2.6,2.3,5.5,4.5,8.2,6.7"/>
				<polyline class="st26" points="46.5,44 46.3,48.5 29.7,50.4 				"/>
				<polygon class="st26" points="147.8,71 141,75.3 123.7,75.5 117,69.5 119.6,62.1 143.6,59.4 				"/>
				<polyline class="st26" points="128.2,44 128.4,48.5 145.1,50.4 				"/>
				<path class="st26" d="M146.7,26l4.4-5.6l11.8,0c2.3,0.1,5.2,0,1.2,3.6c-2.6,2.3-5.5,4.5-8.2,6.7"/>
			</g>
		</g>
	</g>
</g>
</svg>
